<svg width="624" height="144" viewBox="0 0 624 144" fill="none" xmlns="http://www.w3.org/2000/svg">
<path d="M203.69 119.041C197.311 119.041 191.463 117.528 186.147 114.502C180.913 111.476 176.742 107.346 173.634 102.111C170.526 96.8771 168.972 90.9475 168.972 84.3228C168.972 77.6163 170.526 71.6867 173.634 66.5342C176.742 61.2998 180.913 57.2105 186.147 54.2661C191.381 51.24 197.229 49.727 203.69 49.727C210.233 49.727 216.081 51.24 221.234 54.2661C226.468 57.2105 230.598 61.2998 233.624 66.5342C236.732 71.6867 238.286 77.6163 238.286 84.3228C238.286 91.0293 236.732 96.9998 233.624 102.234C230.516 107.468 226.345 111.599 221.111 114.625C215.877 117.569 210.07 119.041 203.69 119.041ZM203.69 106.16C207.616 106.16 211.092 105.219 214.118 103.338C217.144 101.457 219.516 98.8809 221.234 95.6094C223.033 92.2561 223.933 88.4939 223.933 84.3228C223.933 80.1517 223.033 76.4304 221.234 73.1589C219.516 69.8874 217.144 67.3111 214.118 65.43C211.092 63.5489 207.616 62.6084 203.69 62.6084C199.846 62.6084 196.37 63.5489 193.262 65.43C190.236 67.3111 187.824 69.8874 186.024 73.1589C184.307 76.4304 183.448 80.1517 183.448 84.3228C183.448 88.4939 184.307 92.2561 186.024 95.6094C187.824 98.8809 190.236 101.457 193.262 103.338C196.37 105.219 199.846 106.16 203.69 106.16Z" fill="white"/>
<path d="M251.82 117.569V51.1991H265.07V64.5713L263.843 62.6084C265.315 58.2737 267.687 55.1658 270.958 53.2847C274.23 51.3218 278.156 50.3404 282.736 50.3404H286.784V62.9764H281.018C276.438 62.9764 272.717 64.4077 269.854 67.2702C267.074 70.051 265.683 74.0586 265.683 79.2929V117.569H251.82Z" fill="white"/>
<path d="M327.797 119.041C321.172 119.041 315.283 117.528 310.131 114.502C305.06 111.394 301.012 107.223 297.985 101.989C295.041 96.7544 293.569 90.8249 293.569 84.2001C293.569 77.6572 295.041 71.7685 297.985 66.5342C300.93 61.2998 304.978 57.2105 310.131 54.2661C315.283 51.24 321.172 49.727 327.797 49.727C332.295 49.727 336.507 50.5448 340.433 52.1806C344.359 53.7345 347.753 55.9019 350.615 58.6826C353.56 61.4634 355.727 64.694 357.117 68.3744L344.972 74.0177C343.582 70.5826 341.332 67.8428 338.225 65.7981C335.198 63.6716 331.722 62.6084 327.797 62.6084C324.035 62.6084 320.64 63.5489 317.614 65.43C314.67 67.2294 312.339 69.8056 310.621 73.1589C308.904 76.4304 308.045 80.1517 308.045 84.3228C308.045 88.4939 308.904 92.2561 310.621 95.6094C312.339 98.8809 314.67 101.457 317.614 103.338C320.64 105.219 324.035 106.16 327.797 106.16C331.804 106.16 335.28 105.138 338.225 103.093C341.251 100.966 343.5 98.1448 344.972 94.6279L357.117 100.394C355.809 103.911 353.682 107.1 350.738 109.963C347.875 112.744 344.481 114.952 340.555 116.588C336.63 118.223 332.377 119.041 327.797 119.041Z" fill="white"/>
<path d="M370.667 117.569V24.7002H384.53V64.2032L382.321 62.4857C383.957 58.3146 386.574 55.1658 390.173 53.0393C393.772 50.8311 397.943 49.727 402.686 49.727C407.593 49.727 411.928 50.7902 415.69 52.9167C419.453 55.0431 422.397 57.9874 424.523 61.7496C426.65 65.5118 427.713 69.8056 427.713 74.6311V117.569H413.973V78.4342C413.973 75.0809 413.319 72.2592 412.01 69.9692C410.783 67.5974 409.066 65.7981 406.857 64.5713C404.649 63.2627 402.114 62.6084 399.251 62.6084C396.47 62.6084 393.935 63.2627 391.645 64.5713C389.437 65.7981 387.678 67.5974 386.37 69.9692C385.143 72.341 384.53 75.1627 384.53 78.4342V117.569H370.667Z" fill="white"/>
<path d="M462.424 119.041C457.926 119.041 453.959 118.264 450.524 116.71C447.171 115.075 444.553 112.866 442.672 110.086C440.791 107.223 439.851 103.87 439.851 100.026C439.851 96.4273 440.628 93.1967 442.182 90.3341C443.817 87.4716 446.312 85.0589 449.665 83.096C453.018 81.1331 457.23 79.7427 462.301 78.9249L485.365 75.1218V86.0403L465 89.598C461.32 90.2523 458.621 91.4383 456.903 93.1558C455.186 94.7915 454.327 96.918 454.327 99.5352C454.327 102.071 455.268 104.156 457.149 105.792C459.112 107.346 461.606 108.123 464.632 108.123C468.394 108.123 471.666 107.305 474.447 105.669C477.309 104.033 479.517 101.866 481.071 99.1671C482.625 96.3864 483.402 93.3194 483.402 89.9661V72.9135C483.402 69.6421 482.175 66.984 479.722 64.9393C477.35 62.8129 474.16 61.7496 470.153 61.7496C466.472 61.7496 463.242 62.7311 460.461 64.694C457.762 66.5751 455.758 69.0287 454.45 72.0548L442.918 66.2888C444.145 63.0173 446.148 60.1548 448.929 57.7012C451.71 55.1658 454.94 53.2029 458.621 51.8125C462.383 50.4222 466.35 49.727 470.521 49.727C475.755 49.727 480.376 50.7084 484.384 52.6713C488.473 54.6342 491.622 57.374 493.83 60.8909C496.12 64.3259 497.265 68.3335 497.265 72.9135V117.569H484.016V105.546L486.837 105.915C485.283 108.613 483.28 110.944 480.826 112.907C478.454 114.87 475.714 116.383 472.606 117.446C469.58 118.51 466.186 119.041 462.424 119.041Z" fill="white"/>
<path d="M513.474 117.569V51.1991H526.724V64.5713L525.497 62.6084C526.969 58.2737 529.341 55.1658 532.612 53.2847C535.884 51.3218 539.81 50.3404 544.39 50.3404H548.438V62.9764H542.672C538.092 62.9764 534.371 64.4077 531.508 67.2702C528.727 70.051 527.337 74.0586 527.337 79.2929V117.569H513.474Z" fill="white"/>
<path d="M588.592 119.041C582.213 119.041 576.487 117.528 571.417 114.502C566.428 111.394 562.461 107.223 559.517 101.989C556.654 96.7544 555.223 90.8657 555.223 84.3228C555.223 77.7799 556.695 71.8912 559.639 66.6568C562.584 61.4225 566.55 57.2922 571.539 54.2661C576.528 51.24 582.172 49.727 588.469 49.727C593.785 49.727 598.488 50.7902 602.577 52.9167C606.667 55.0431 609.897 57.9874 612.269 61.7496L610.184 64.9393V24.7002H623.924V117.569H610.797V104.074L612.392 106.651C610.102 110.658 606.83 113.725 602.577 115.852C598.325 117.978 593.663 119.041 588.592 119.041ZM589.941 106.16C593.785 106.16 597.22 105.219 600.247 103.338C603.354 101.457 605.767 98.8809 607.485 95.6094C609.284 92.2561 610.184 88.4939 610.184 84.3228C610.184 80.1517 609.284 76.4304 607.485 73.1589C605.767 69.8874 603.354 67.3111 600.247 65.43C597.22 63.5489 593.785 62.6084 589.941 62.6084C586.097 62.6084 582.621 63.5489 579.514 65.43C576.406 67.3111 573.993 69.8874 572.275 73.1589C570.558 76.4304 569.699 80.1517 569.699 84.3228C569.699 88.4939 570.558 92.2561 572.275 95.6094C573.993 98.8809 576.365 101.457 579.391 103.338C582.499 105.219 586.016 106.16 589.941 106.16Z" fill="white"/>
<g clip-path="url(#clip0_73_254)">
<rect width="143.127" height="143.127" fill="#BF3747"/>
<path d="M136.245 67.5442C131.341 54.0705 116.755 46.9202 103.204 51.0879C102.766 51.2225 102.329 51.3679 101.894 51.5263C101.736 51.0912 101.566 50.663 101.388 50.2413C95.8699 37.1811 81.0173 30.6044 67.5436 35.5084C54.0699 40.4124 46.9196 54.9976 51.0873 68.5492C51.2219 68.9869 51.3673 69.4237 51.5257 69.8589C51.0906 70.0172 50.6625 70.1867 50.2407 70.3649C37.1805 75.883 30.6038 90.7356 35.5078 104.209C40.5702 118.118 55.9495 125.29 69.8583 120.227C74.9207 134.136 90.2999 141.308 104.209 136.245C118.118 131.183 125.289 115.803 120.227 101.895C134.135 96.8322 141.307 81.453 136.245 67.5442ZM90.4593 98.4688C91.7465 98.0004 93.0589 97.743 94.359 97.6761C97.6751 100.313 101.58 102.133 105.731 102.979C106.517 104.019 107.166 105.189 107.635 106.478C110.166 113.432 106.58 121.122 99.6256 123.653C92.6712 126.184 84.9816 122.598 82.4504 115.644C81.9815 114.356 81.7231 113.042 81.6565 111.741C84.293 108.425 86.1134 104.521 86.9593 100.369C87.9989 99.584 89.1711 98.9377 90.4593 98.4688ZM56.1089 82.451C57.396 81.9825 58.7084 81.7251 60.0086 81.6582C63.3247 84.2947 67.2295 86.1148 71.3805 86.961C72.1661 88.0008 72.8151 89.1714 73.2841 90.4599C73.7527 91.7474 74.007 93.0603 74.0737 94.3607C71.4379 97.6768 69.6169 101.582 68.7709 105.733C67.7318 106.517 66.5626 107.167 65.2751 107.635C58.3207 110.166 50.6311 106.581 48.0999 99.6262C45.5687 92.6718 49.1544 84.9822 56.1089 82.451ZM106.477 64.1184C113.432 61.5872 121.121 65.1729 123.652 72.1273C126.184 79.0817 122.598 86.7713 115.644 89.3025C114.355 89.7715 113.041 90.0268 111.74 90.0933C108.423 87.4574 104.519 85.6361 100.368 84.7905C99.5832 83.7516 98.9368 82.5808 98.4683 81.2936C97.9994 80.0054 97.741 78.692 97.6744 77.3908C100.311 74.0743 102.131 70.1704 102.977 66.0189C104.017 65.2335 105.189 64.5872 106.477 64.1184ZM72.1267 48.1005C79.0812 45.5693 86.7708 49.155 89.302 56.1094C89.7706 57.3969 90.0249 58.7098 90.0916 60.0103C87.4557 63.3263 85.6348 67.2314 84.7888 71.3821C83.7497 72.1669 82.5805 72.8161 81.293 73.2847C80.0045 73.7536 78.6906 74.0089 77.3891 74.0754C74.0726 71.4395 70.1684 69.6182 66.0172 68.7726C65.2327 67.7337 64.5863 66.5629 64.1178 65.2757C61.5866 58.3213 65.1723 50.6317 72.1267 48.1005ZM148.837 62.961C155.042 80.0089 148.99 98.5244 135.188 108.871C136.134 126.095 125.84 142.632 108.792 148.837C91.7437 155.042 73.2253 148.992 62.8787 135.19C45.6559 136.134 29.1203 125.839 22.9157 108.792C16.7111 91.7453 22.7593 73.2274 36.5603 62.8804C35.6155 45.6573 45.9133 29.121 62.9604 22.9163C80.0073 16.7118 98.5224 22.7615 108.869 36.562C126.094 35.6157 142.632 45.9128 148.837 62.961Z" fill="white"/>
<path d="M89.302 56.1094C91.8332 63.0638 88.2475 70.7534 81.2931 73.2846C74.3386 75.8158 66.649 72.2301 64.1178 65.2757C61.5866 58.3213 65.1723 50.6316 72.1268 48.1004C79.0812 45.5692 86.7708 49.155 89.302 56.1094Z" fill="white"/>
<path d="M107.635 106.478C110.166 113.432 106.58 121.122 99.6256 123.653C92.6712 126.184 84.9815 122.598 82.4503 115.644C79.9191 108.689 83.5049 101 90.4593 98.4686C97.4137 95.9374 105.103 99.5231 107.635 106.478Z" fill="white"/>
<path d="M123.652 72.127C126.184 79.0814 122.598 86.771 115.644 89.3022C108.689 91.8334 100.999 88.2477 98.4683 81.2933C95.9371 74.3388 99.5228 66.6492 106.477 64.118C113.432 61.5868 121.121 65.1726 123.652 72.127Z" fill="white"/>
<path d="M73.2841 90.46C75.8153 97.4144 72.2295 105.104 65.2751 107.635C58.3207 110.166 50.6311 106.581 48.0999 99.6263C45.5687 92.6719 49.1544 84.9822 56.1088 82.451C63.0632 79.9198 70.7528 83.5056 73.2841 90.46Z" fill="white"/>
</g>
<defs>
<clipPath id="clip0_73_254">
<rect width="143.127" height="143.127" fill="white"/>
</clipPath>
</defs>
</svg>
