<svg width="4362" height="203" viewBox="0 0 4362 203" fill="none" xmlns="http://www.w3.org/2000/svg">
<path d="M195.375 5.625L199.5 5.5C200.333 5.91667 200.958 6.95833 201.375 8.625L197.625 16V15.875L189.5 31.5C177.25 54.1667 169.333 69.2917 165.75 76.875L161.5 85C156.917 93.8333 149.125 109.417 138.125 131.75C137.958 134.583 137.875 138.833 137.875 144.5V196.125C137.458 197.458 136.625 198.125 135.375 198.125L63.75 198.625C61.9167 196.292 61 193.625 61 190.625L61.25 175V171.375L61.375 167.625L61.5 158.5C61.5 141.083 57.0417 122.417 48.125 102.5C46.2083 98.3333 43.4167 92.4583 39.75 84.875L21.125 47.625C20.625 46.7083 19.2917 44.1667 17.125 40C14.9583 35.8333 12.5833 31.3333 10 26.5V26.625C3.33333 16.4583 0 9.70833 0 6.375C0 5.95833 1.33333 5.75 4 5.75H36.125C53.875 5.75 67.25 5.875 76.25 6.125C78.9167 6.625 85.875 26.6667 97.125 66.25L102.75 86.125C111.25 63.4583 120.208 36.875 129.625 6.375C129.708 5.70833 135.875 5.375 148.125 5.375H164.125C167.958 5.375 171.167 5.45833 173.75 5.625H195.375Z" fill="#FFEECC"/>
<path d="M261.375 99C261.375 99.0833 261.333 99.2917 261.25 99.625V100C260.917 103.5 260.75 107.417 260.75 111.75C260.75 116.083 261.083 120.667 261.75 125.5C262.5 130.333 263.667 135.167 265.25 140C266.917 144.833 269.458 148.75 272.875 151.75C276.542 154.917 280.625 156.5 285.125 156.5C289.708 156.5 293.542 155.875 296.625 154.625C299.792 153.292 302.417 151.625 304.5 149.625C306.667 147.625 308.542 144.917 310.125 141.5C314.125 132.417 316.125 118.333 316.125 99.25C316.125 79.8333 313.875 66.25 309.375 58.5C304.958 50.6667 298.25 46.75 289.25 46.75C284.75 46.75 280.792 47.8333 277.375 50C274.042 52.1667 271.5 54.4167 269.75 56.75C268.083 59.0833 266.333 64.0417 264.5 71.625C262.75 79.2083 261.875 86.2083 261.875 92.625L261.375 99ZM189.5 100L189.75 97.25C190.75 86.8333 192.083 77.625 193.75 69.625C195.417 61.5417 198.125 54 201.875 47C210.792 31.5833 223.208 19.9167 239.125 12C255.125 4 272.333 0 290.75 0C309.25 0 326.042 3.70833 341.125 11.125C350.125 15.5417 357.167 21.125 362.25 27.875C372 40.0417 378.417 51.25 381.5 61.5C384.583 71.75 386.125 83.5833 386.125 97C386.125 126.833 379.958 149.583 367.625 165.25L361.875 172.875C354.125 181.875 343.167 188.833 329 193.75C314.833 198.583 300.792 201.083 286.875 201.25C263.042 201.25 243.5 196.25 228.25 186.25C202.417 169.5 189.5 140.75 189.5 100Z" fill="#FFEECC"/>
<path d="M584.125 97.125L583.75 132.25C583.75 143 582 152.5 578.5 160.75C575.083 169 570.542 175.667 564.875 180.75C549.458 194.75 526.667 201.75 496.5 201.75C466.333 201.75 442.875 194.417 426.125 179.75C420.208 174.667 415.208 168.083 411.125 160C407.125 151.833 404.708 142.625 403.875 132.375C404.292 97.5417 404.5 65.3333 404.5 35.75C404.083 35.75 403.875 31.375 403.875 22.625C403.875 13.875 404.25 8.45833 405 6.375H407.625C419.875 5.70833 436.583 5.375 457.75 5.375C459.25 5.70833 461.958 5.91667 465.875 6C469.875 6.08333 472.625 6.20833 474.125 6.375L478 6.875C478.583 23.375 478.958 46.0833 479.125 75L478.375 125.25C478.375 141.917 483.208 150.25 492.875 150.25C496.958 150.25 500.375 148.458 503.125 144.875C505.958 141.292 507.458 137.25 507.625 132.75L508.125 131.5L508.5 89.375L508.625 85.625C508.625 66.2917 508.375 47.625 507.875 29.625L507.625 20.5C507.458 16.8333 507.375 13.5417 507.375 10.625C507.375 7.70833 507.833 5.70833 508.75 4.625C540.917 4.625 565.167 4.75 581.5 5C582.083 5.58333 582.833 6.125 583.75 6.625H583.625L585 7.5C584.333 23.25 584 43.5 584 68.25V89.75L584.125 97.125Z" fill="#FFEECC"/>
<path d="M643.875 3L659.75 2.75C672.5 2.75 678.875 3.20833 678.875 4.125C678.708 4.45833 678.625 4.91667 678.625 5.5C677.458 8.33333 676 12.375 674.25 17.625C672.5 22.875 671.375 26.2083 670.875 27.625L667.25 37.75C661.167 56 656.042 70.3333 651.875 80.75C648.375 83.5 640 84.875 626.75 84.875H615.375L613.75 85H605.25C601.417 85 599.167 84.6667 598.5 84L597.25 82.25C597.417 81.4167 597.708 80.25 598.125 78.75C598.542 77.1667 598.833 75.9583 599 75.125L603.75 57.625C603.417 57.5417 602.667 57.25 601.5 56.75C611.917 29.6667 617.792 11.7917 619.125 3.125C620.125 3.04167 621.458 3 623.125 3H643.875ZM653.25 79.5L651.125 83L651.875 80.75C652.542 80.25 653 79.8333 653.25 79.5Z" fill="#FFEECC"/>
<path d="M753.5 6L793.625 5.625C802.125 5.625 809.833 5.79167 816.75 6.125C835.333 6.625 849.458 11 859.125 19.25C868.875 27.5 873.75 39.125 873.75 54.125C873.75 64.5417 870.708 73.4583 864.625 80.875C858.542 88.2083 849.667 94.6667 838 100.25C856.5 106.083 867.708 120.25 871.625 142.75C872.542 147.667 873.25 153.292 873.75 159.625C874.333 165.958 874.792 170.208 875.125 172.375L876.375 178.75C877.708 186.25 878.875 191.667 879.875 195L879.375 195.375C865.208 196.292 852.25 196.75 840.5 196.75C828.833 196.75 818.5 196.542 809.5 196.125H808.75C806.167 196.125 803.417 183.833 800.5 159.25L799.875 153.875C799.542 144.708 797.917 138.542 795 135.375C792.167 132.208 787.208 130.625 780.125 130.625L778.5 130.75H771.875V168.75L772 172.75V195.625C771.75 196.458 771.125 196.958 770.125 197.125C760.958 197.458 748 197.625 731.25 197.625C714.583 197.625 703.583 197.667 698.25 197.75L697.5 197.5L697.25 197.625C697.083 197.625 696.833 197.5 696.5 197.25L696.75 186L696.625 182.25L697.125 130.375V121.25L697.25 111.875L697.375 79.5L697.5 75.25L697.125 46.875C697.125 46.875 697.292 33.5833 697.625 7C697.625 6.33333 700 6 704.75 6L712.75 6.125H720.375L736.25 6.25L753.5 6ZM880.625 194.625L880 195V194.75C880 194.667 880.208 194.625 880.625 194.625ZM880 195V195.125C879.917 195.125 879.875 195.083 879.875 195H880ZM799.75 46.75C794.75 44.5833 788.083 43.5 779.75 43.5H772.5C771.583 44.8333 771.125 51.875 771.125 64.625C771.125 77.2917 771.333 85.7917 771.75 90.125C797.833 89.5417 810.875 80.5417 810.875 63.125C810.875 55.7083 807.167 50.25 799.75 46.75Z" fill="#FFEECC"/>
<path d="M893.125 39.25L892.5 6.375C892.583 6.375 892.875 6.5 893.375 6.75C956.708 5.66667 1004.42 5.08333 1036.5 5C1036.83 5.16667 1037.08 5.41667 1037.25 5.75V41C1037.25 44.4167 1037.17 47.2083 1037 49.375C1036.58 50.7083 1034.12 51.375 1029.62 51.375H1028.75C1008.58 51.375 987.583 51.0417 965.75 50.375C965.75 51.125 965.625 52.4583 965.375 54.375C965.208 56.2917 965.083 57.6667 965 58.5L964.375 63.25C963.958 66.4167 963.667 71.9167 963.5 79.75L1002.25 78.875C1008.92 78.7083 1013.75 78.625 1016.75 78.625H1018.75C1023.83 78.625 1027.17 78.7917 1028.75 79.125C1030.33 79.375 1031.12 80.2083 1031.12 81.625L1031 82.625V85.625L1031.62 117.75L1031.5 117.875V117.75C1006.17 119 985.917 119.625 970.75 119.625H964.875V149.875L1032.75 147.75C1036.5 147.75 1038.88 148.292 1039.88 149.375C1039.79 151.542 1039.75 154.625 1039.75 158.625L1040.62 192.625C1040.62 194.708 1039.71 195.917 1037.88 196.25L996.375 195.875C988.208 195.875 971.958 196.167 947.625 196.75L927.125 197.25C912.625 197.75 901.875 198 894.875 198L894.5 197.75H894.625C893.792 196.917 893 196.125 892.25 195.375V191L893 57.375L893.125 39.25Z" fill="#FFEECC"/>
<path d="M1207.88 99C1207.88 99.0833 1207.83 99.2917 1207.75 99.625V100C1207.42 103.5 1207.25 107.417 1207.25 111.75C1207.25 116.083 1207.58 120.667 1208.25 125.5C1209 130.333 1210.17 135.167 1211.75 140C1213.42 144.833 1215.96 148.75 1219.38 151.75C1223.04 154.917 1227.12 156.5 1231.62 156.5C1236.21 156.5 1240.04 155.875 1243.12 154.625C1246.29 153.292 1248.92 151.625 1251 149.625C1253.17 147.625 1255.04 144.917 1256.62 141.5C1260.62 132.417 1262.62 118.333 1262.62 99.25C1262.62 79.8333 1260.38 66.25 1255.88 58.5C1251.46 50.6667 1244.75 46.75 1235.75 46.75C1231.25 46.75 1227.29 47.8333 1223.88 50C1220.54 52.1667 1218 54.4167 1216.25 56.75C1214.58 59.0833 1212.83 64.0417 1211 71.625C1209.25 79.2083 1208.38 86.2083 1208.38 92.625L1207.88 99ZM1136 100L1136.25 97.25C1137.25 86.8333 1138.58 77.625 1140.25 69.625C1141.92 61.5417 1144.62 54 1148.38 47C1157.29 31.5833 1169.71 19.9167 1185.62 12C1201.62 4 1218.83 0 1237.25 0C1255.75 0 1272.54 3.70833 1287.62 11.125C1296.62 15.5417 1303.67 21.125 1308.75 27.875C1318.5 40.0417 1324.92 51.25 1328 61.5C1331.08 71.75 1332.62 83.5833 1332.62 97C1332.62 126.833 1326.46 149.583 1314.12 165.25L1308.38 172.875C1300.62 181.875 1289.67 188.833 1275.5 193.75C1261.33 198.583 1247.29 201.083 1233.38 201.25C1209.54 201.25 1190 196.25 1174.75 186.25C1148.92 169.5 1136 140.75 1136 100Z" fill="#FFEECC"/>
<path d="M1540.75 106.5L1540.62 114.875V161.125L1540.88 183.125V189.375L1541 195.25C1540.5 195.917 1538.46 196.25 1534.88 196.25H1531.62L1492.38 196.75C1475.71 196.75 1463.29 196.708 1455.12 196.625C1453.88 195.292 1449.33 183.167 1441.5 160.25L1417.62 96.875L1413.12 97.5L1413 110.25V144.125L1413.5 178V192C1413.5 195.75 1412.67 197.708 1411 197.875C1402.75 197.625 1394.88 197.5 1387.38 197.5H1383.5L1364.62 198H1362.12L1353.12 198.25L1352.75 198C1350 195.417 1348.62 193.542 1348.62 192.375V190.125L1348.75 187.625L1349.38 138.875C1349.38 85.375 1349.88 44.9167 1350.88 17.5L1351.12 7.125C1351.12 6.375 1379.83 5.70833 1437.25 5.125C1437.75 5.45833 1438.5 7.29167 1439.5 10.625V10.25L1440.25 12.75C1446.42 30.4167 1453.92 50.7083 1462.75 73.625C1471.58 96.4583 1476.08 108.125 1476.25 108.625L1480.5 108.375L1481 6.5C1481 5.83333 1487.08 5.5 1499.25 5.5L1530.62 6.125H1539.88C1540.46 33.7083 1540.75 67.1667 1540.75 106.5Z" fill="#FFEECC"/>
<path d="M1721.75 86.5C1720.75 110.083 1720.25 134.333 1720.25 159.25V196.5H1711.12L1708 196.375L1663.62 196.75C1660.79 196.75 1659.29 196.792 1659.12 196.875C1659.12 196.792 1659.29 196.083 1659.62 194.75V194L1659.75 193.5C1659.33 187.5 1659.12 180.208 1659.12 171.625L1659.62 32L1659.5 25.5V19.25L1659.25 7.5C1659.25 6.66667 1659.71 5.79167 1660.62 4.875H1677.75L1687.75 4.75C1711.25 4.75 1728.04 5.08333 1738.12 5.75C1748.29 6.41667 1755.58 6.75 1760 6.75C1762.42 21.0833 1766 40.0833 1770.75 63.75L1779.62 108.5H1784L1800 26.75C1800.25 25.5 1800.83 21.875 1801.75 15.875C1802.67 9.79167 1803.38 6.41667 1803.88 5.75H1804.38L1885.75 5L1890.62 5.125H1904.62C1905.38 5.45833 1905.79 7 1905.88 9.75L1907.12 57C1908.12 96.1667 1908.83 126.667 1909.25 148.5C1909.25 165.333 1909 181.125 1908.5 195.875C1908.25 196.875 1906.58 197.458 1903.5 197.625L1897.88 197.875C1893.38 198.042 1890.04 198.125 1887.88 198.125H1881.38C1873.29 198.208 1861.38 198.25 1845.62 198.25C1842.71 195.667 1841.25 184.5 1841.25 164.75L1841.5 125.5V115.375C1841.5 106.458 1841.46 99.875 1841.38 95.625L1836.62 94.75C1833.88 104.833 1828.58 127.292 1820.75 162.125L1819.62 167.125C1819.04 169.708 1818.04 174.333 1816.62 181C1815.29 187.583 1814.21 192.583 1813.38 196C1812.38 197.167 1807.96 197.75 1800.12 197.75H1798.5L1784.5 197.375L1776.88 197.5H1771L1761.12 197.625H1757.62C1753.79 197.625 1751.67 196.75 1751.25 195L1751.38 195.125L1740 145.5C1739.67 144.25 1738.92 141.542 1737.75 137.375C1736.58 133.125 1735.92 129.583 1735.75 126.75L1726.38 86.25L1721.75 86.5Z" fill="#FFEECC"/>
<path d="M2129.25 195.375C2129.17 196.458 2126.88 197 2122.38 197H2110.88L2103.12 197.125H2095.5L2083.38 197.25C2071.29 197.25 2061.25 196.958 2053.25 196.375C2053 196.292 2052.71 195.792 2052.38 194.875L2051.75 192.25C2051 183.667 2049.04 175.375 2045.88 167.375L1992.38 167.875C1992.04 169.292 1990.96 173.5 1989.12 180.5C1987.29 187.5 1985.92 192.792 1985 196.375C1984.17 197.208 1980.21 197.625 1973.12 197.625L1970 197.5H1962.75L1930.25 198.25H1926.5L1923 198.375H1914.25C1913.67 197.792 1913.04 197.042 1912.38 196.125C1920.71 167.292 1932 131.542 1946.25 88.875L1949.12 80H1949L1952.38 69.625C1953.46 66.2917 1956.54 57.0417 1961.62 41.875C1966.79 26.7083 1970 16.9167 1971.25 12.5C1972.58 8.08333 1973.38 5.79167 1973.62 5.625H1994.38L2038.75 5L2050.75 5.625L2060.62 5C2065.62 5 2068.12 6 2068.12 8C2076.46 31.25 2087.58 64.7083 2101.5 108.375C2115.42 152.042 2123.25 176.583 2125 182L2126.75 188.25C2127.33 190.5 2128.17 192.875 2129.25 195.375ZM2005.5 127.125L2010.62 127.25L2040.5 127.125C2039.25 117.208 2038.29 109.917 2037.62 105.25L2032.88 83.875C2027.88 61.7917 2025.29 50.5417 2025.12 50.125C2024.96 49.7083 2024.79 49.3333 2024.62 49C2024.54 48.5833 2024.46 48.3333 2024.38 48.25C2024.29 48.0833 2024.17 47.8333 2024 47.5C2023.92 47.1667 2023.79 46.9583 2023.62 46.875C2023.54 46.7083 2023.42 46.5 2023.25 46.25C2022.67 45.25 2021.46 44.375 2019.62 43.625C2017.38 44.125 2010.67 69.2083 1999.5 118.875L1998.12 127.125H2005.5Z" fill="#FFEECC"/>
<path d="M2325.5 106.5L2325.38 114.875V161.125L2325.62 183.125V189.375L2325.75 195.25C2325.25 195.917 2323.21 196.25 2319.62 196.25H2316.38L2277.12 196.75C2260.46 196.75 2248.04 196.708 2239.88 196.625C2238.62 195.292 2234.08 183.167 2226.25 160.25L2202.38 96.875L2197.88 97.5L2197.75 110.25V144.125L2198.25 178V192C2198.25 195.75 2197.42 197.708 2195.75 197.875C2187.5 197.625 2179.62 197.5 2172.12 197.5H2168.25L2149.38 198H2146.88L2137.88 198.25L2137.5 198C2134.75 195.417 2133.38 193.542 2133.38 192.375V190.125L2133.5 187.625L2134.12 138.875C2134.12 85.375 2134.62 44.9167 2135.62 17.5L2135.88 7.125C2135.88 6.375 2164.58 5.70833 2222 5.125C2222.5 5.45833 2223.25 7.29167 2224.25 10.625V10.25L2225 12.75C2231.17 30.4167 2238.67 50.7083 2247.5 73.625C2256.33 96.4583 2260.83 108.125 2261 108.625L2265.25 108.375L2265.75 6.5C2265.75 5.83333 2271.83 5.5 2284 5.5L2315.38 6.125H2324.62C2325.21 33.7083 2325.5 67.1667 2325.5 106.5Z" fill="#FFEECC"/>
<path d="M2351 180.625C2351 163.708 2351.46 151.958 2352.38 145.375C2352.38 109.125 2352.88 72.5833 2353.88 35.75C2353.62 30.5 2353.5 25.2083 2353.5 19.875V15.75C2353.17 13.1667 2353 10.875 2353 8.875C2353 6.875 2353.21 5.58333 2353.62 5C2371.46 6.08333 2387.08 6.625 2400.5 6.625C2413.92 6.625 2423.12 6.375 2428.12 5.875C2428.29 6.125 2428.42 6.83333 2428.5 8H2427.62V53.25L2428.5 155C2428.5 155.75 2428.62 156.375 2428.88 156.875V157.125C2429.12 157.625 2429.25 158.167 2429.25 158.75L2430.25 195.125C2429.83 196.042 2429.08 196.75 2428 197.25H2423.75L2353.75 198.375C2352.92 197.958 2351.83 197.333 2350.5 196.5L2350.62 194.375L2351 180.625Z" fill="#FFEECC"/>
<path d="M2610.5 52.125C2610.5 54.875 2610.21 56.25 2609.62 56.25C2609.62 56.25 2594.54 56.125 2564.38 55.875C2564.21 63.9583 2564.12 76.5833 2564.12 93.75C2564.12 110.917 2564.17 122.833 2564.25 129.5L2564.75 195.75C2564.33 196.917 2563.5 197.542 2562.25 197.625L2535.88 197.25L2535.75 197.375L2527.5 197.25H2504.62C2498.46 197.25 2493.83 197.292 2490.75 197.375L2488.62 195.5C2488.54 195.417 2488 194.75 2487 193.5C2487 186.167 2487.29 169.875 2487.88 144.625L2489.25 78.125L2489 75C2488.42 66.75 2487.83 61.875 2487.25 60.375C2486.75 58.7917 2485.71 57.9583 2484.12 57.875C2482.54 57.7083 2481.38 57.625 2480.62 57.625L2475.62 57.875L2444.62 57.375C2443.54 55.2083 2443 50.3333 2443 42.75L2443.25 31.75V28.375C2443.17 15.0417 2443.04 7.91667 2442.88 7C2443.04 7 2443.38 7.08333 2443.88 7.25L2603 5.875C2606.25 5.875 2608.29 6.125 2609.12 6.625C2609.96 7.04167 2610.38 7.875 2610.38 9.125V42.125L2610.5 52.125Z" fill="#FFEECC"/>
<path d="M2622.38 39.25L2621.75 6.375C2621.83 6.375 2622.12 6.5 2622.62 6.75C2685.96 5.66667 2733.67 5.08333 2765.75 5C2766.08 5.16667 2766.33 5.41667 2766.5 5.75V41C2766.5 44.4167 2766.42 47.2083 2766.25 49.375C2765.83 50.7083 2763.38 51.375 2758.88 51.375H2758C2737.83 51.375 2716.83 51.0417 2695 50.375C2695 51.125 2694.88 52.4583 2694.62 54.375C2694.46 56.2917 2694.33 57.6667 2694.25 58.5L2693.62 63.25C2693.21 66.4167 2692.92 71.9167 2692.75 79.75L2731.5 78.875C2738.17 78.7083 2743 78.625 2746 78.625H2748C2753.08 78.625 2756.42 78.7917 2758 79.125C2759.58 79.375 2760.38 80.2083 2760.38 81.625L2760.25 82.625V85.625L2760.88 117.75L2760.75 117.875V117.75C2735.42 119 2715.17 119.625 2700 119.625H2694.12V149.875L2762 147.75C2765.75 147.75 2768.12 148.292 2769.12 149.375C2769.04 151.542 2769 154.625 2769 158.625L2769.88 192.625C2769.88 194.708 2768.96 195.917 2767.12 196.25L2725.62 195.875C2717.46 195.875 2701.21 196.167 2676.88 196.75L2656.38 197.25C2641.88 197.75 2631.12 198 2624.12 198L2623.75 197.75H2623.88C2623.04 196.917 2622.25 196.125 2621.5 195.375V191L2622.25 57.375L2622.38 39.25Z" fill="#FFEECC"/>
<path d="M2787.62 131.875L2802.62 132H2807L2808.62 131.875L2829.75 132.25C2833.5 132.5 2835.58 134.833 2836 139.25C2836.17 141 2836.38 142.75 2836.62 144.5C2837.21 148.667 2840.21 150.75 2845.62 150.75C2851.12 150.75 2854.62 148.167 2856.12 143C2857.21 139 2857.75 134.25 2857.75 128.75V125.5H2857.38L2856.88 107.75C2856.54 96.1667 2856.38 79.0417 2856.38 56.375C2856.38 33.7083 2856.54 17.2917 2856.88 7.125L2856.75 7C2856.75 6.33333 2857 5.83333 2857.5 5.5L2859.12 5.25L2865.25 5.375H2911L2920.12 5.25H2932.38C2933.04 5.25 2933.54 5.625 2933.88 6.375C2933.71 8.20833 2933.62 11 2933.62 14.75V16.75L2933.5 18.875L2933.25 25.25C2932.67 41.0833 2932.38 64.5833 2932.38 95.75V109.5C2932.38 121.25 2932.33 131.083 2932.25 139C2932.17 146.833 2930.21 154.708 2926.38 162.625C2922.62 170.458 2917.88 176.75 2912.12 181.5C2906.46 186.167 2899.88 190.042 2892.38 193.125C2879.12 198.542 2865.29 201.25 2850.88 201.25C2836.46 201.25 2824.42 199.792 2814.75 196.875C2806.17 194.708 2799.04 191.417 2793.38 187C2787.79 182.5 2783.46 178.25 2780.38 174.25C2773.54 165.25 2770.12 154.167 2770.12 141V137.75L2770 136.25C2770 133 2770.5 131.375 2771.5 131.375L2787.62 131.875Z" fill="#FFEECC"/>
<path d="M3098.12 5L3121.5 4.625C3162.25 4.625 3190.88 11.375 3207.38 24.875C3210.88 27.4583 3214.71 31.7917 3218.88 37.875C3230.96 55.4583 3237 74.875 3237 96.125C3237 134.042 3223.96 162.083 3197.88 180.25C3182.29 191.167 3164.38 196.708 3144.12 196.875L3143.62 197.375H3140.5L3107.25 197C3092.17 197 3073.29 197.375 3050.62 198.125C3049.04 195.125 3048.25 191.583 3048.25 187.5L3048.38 183V163.5L3048.62 135.75V90C3048.46 79.5 3048.38 71.6667 3048.38 66.5V46L3048.5 43.125V7.375C3048.5 6.70833 3053.04 6.16667 3062.12 5.75C3071.21 5.25 3078.46 5 3083.88 5H3098.12ZM3151.12 48.25C3146.38 44.8333 3141.12 42.9167 3135.38 42.5C3133.38 42.4167 3130.62 42.3333 3127.12 42.25C3123.71 42.1667 3121.21 42.0833 3119.62 42C3118.12 44.25 3117.12 45.9167 3116.62 47L3114.38 51.625V58.625C3114.38 73.0417 3114.71 92.5833 3115.38 117.25L3116.12 153.375C3116.62 155.958 3118.29 157.5 3121.12 158C3129.71 157.833 3136.33 157.25 3141 156.25C3157.42 150.417 3165.62 130.458 3165.62 96.375C3165.62 71.125 3160.79 55.0833 3151.12 48.25Z" fill="#FFEECC"/>
<path d="M3316.12 99C3316.12 99.0833 3316.08 99.2917 3316 99.625V100C3315.67 103.5 3315.5 107.417 3315.5 111.75C3315.5 116.083 3315.83 120.667 3316.5 125.5C3317.25 130.333 3318.42 135.167 3320 140C3321.67 144.833 3324.21 148.75 3327.62 151.75C3331.29 154.917 3335.38 156.5 3339.88 156.5C3344.46 156.5 3348.29 155.875 3351.38 154.625C3354.54 153.292 3357.17 151.625 3359.25 149.625C3361.42 147.625 3363.29 144.917 3364.88 141.5C3368.88 132.417 3370.88 118.333 3370.88 99.25C3370.88 79.8333 3368.62 66.25 3364.12 58.5C3359.71 50.6667 3353 46.75 3344 46.75C3339.5 46.75 3335.54 47.8333 3332.12 50C3328.79 52.1667 3326.25 54.4167 3324.5 56.75C3322.83 59.0833 3321.08 64.0417 3319.25 71.625C3317.5 79.2083 3316.62 86.2083 3316.62 92.625L3316.12 99ZM3244.25 100L3244.5 97.25C3245.5 86.8333 3246.83 77.625 3248.5 69.625C3250.17 61.5417 3252.88 54 3256.62 47C3265.54 31.5833 3277.96 19.9167 3293.88 12C3309.88 4 3327.08 0 3345.5 0C3364 0 3380.79 3.70833 3395.88 11.125C3404.88 15.5417 3411.92 21.125 3417 27.875C3426.75 40.0417 3433.17 51.25 3436.25 61.5C3439.33 71.75 3440.88 83.5833 3440.88 97C3440.88 126.833 3434.71 149.583 3422.38 165.25L3416.62 172.875C3408.88 181.875 3397.92 188.833 3383.75 193.75C3369.58 198.583 3355.54 201.083 3341.62 201.25C3317.79 201.25 3298.25 196.25 3283 186.25C3257.17 169.5 3244.25 140.75 3244.25 100Z" fill="#FFEECC"/>
<path d="M3608 52.125C3608 54.875 3607.71 56.25 3607.12 56.25C3607.12 56.25 3592.04 56.125 3561.88 55.875C3561.71 63.9583 3561.62 76.5833 3561.62 93.75C3561.62 110.917 3561.67 122.833 3561.75 129.5L3562.25 195.75C3561.83 196.917 3561 197.542 3559.75 197.625L3533.38 197.25L3533.25 197.375L3525 197.25H3502.12C3495.96 197.25 3491.33 197.292 3488.25 197.375L3486.12 195.5C3486.04 195.417 3485.5 194.75 3484.5 193.5C3484.5 186.167 3484.79 169.875 3485.38 144.625L3486.75 78.125L3486.5 75C3485.92 66.75 3485.33 61.875 3484.75 60.375C3484.25 58.7917 3483.21 57.9583 3481.62 57.875C3480.04 57.7083 3478.88 57.625 3478.12 57.625L3473.12 57.875L3442.12 57.375C3441.04 55.2083 3440.5 50.3333 3440.5 42.75L3440.75 31.75V28.375C3440.67 15.0417 3440.54 7.91667 3440.38 7C3440.54 7 3440.88 7.08333 3441.38 7.25L3600.5 5.875C3603.75 5.875 3605.79 6.125 3606.62 6.625C3607.46 7.04167 3607.88 7.875 3607.88 9.125V42.125L3608 52.125Z" fill="#FFEECC"/>
<path d="M3701.25 94.375C3703.25 75.375 3706.58 61.0833 3711.25 51.5C3720.17 33 3733.46 19.875 3751.12 12.125C3766.88 5.20833 3784 1.75 3802.5 1.75C3833.5 1.75 3856.12 10.25 3870.38 27.25C3878.96 37.3333 3883.92 49.875 3885.25 64.875L3886.38 76.625C3884.96 77.9583 3876 78.625 3859.5 78.625L3839.62 78.375H3838L3827.12 78.125L3824.12 78.25H3821.62C3819.29 78.25 3817.5 74.8333 3816.25 68C3815.08 61.1667 3813.25 56.6667 3810.75 54.5C3808.33 52.25 3805.5 51.125 3802.25 51.125C3799 51.125 3796.12 51.7083 3793.62 52.875C3791.21 54.0417 3789.21 55.4583 3787.62 57.125C3786.04 58.7083 3784.71 61 3783.62 64C3781.62 69.1667 3780.42 74.6667 3780 80.5C3779.58 86.25 3779.38 92.7083 3779.38 99.875V102.875L3778.88 115.5C3778.88 138.5 3785.38 150.25 3798.38 150.75C3801.71 150.75 3804.04 150.167 3805.38 149C3808.96 145.833 3812.08 139.458 3814.75 129.875C3815.33 127.875 3816.04 126.25 3816.88 125H3821.62L3827.38 125.125H3847.62L3853.75 125L3865.62 125.125H3872.88L3880.25 125.25H3885.25C3886.25 125.333 3886.96 126.208 3887.38 127.875L3887 132C3886.25 141.833 3883.96 150.75 3880.12 158.75C3873.04 173.417 3861.88 184.333 3846.62 191.5C3831.46 198.583 3814.79 202.125 3796.62 202.125C3764.88 202.125 3741.04 192.75 3725.12 174C3709.21 155.25 3701.25 128.708 3701.25 94.375Z" fill="#FFEECC"/>
<path d="M3965.88 99C3965.88 99.0833 3965.83 99.2917 3965.75 99.625V100C3965.42 103.5 3965.25 107.417 3965.25 111.75C3965.25 116.083 3965.58 120.667 3966.25 125.5C3967 130.333 3968.17 135.167 3969.75 140C3971.42 144.833 3973.96 148.75 3977.38 151.75C3981.04 154.917 3985.12 156.5 3989.62 156.5C3994.21 156.5 3998.04 155.875 4001.12 154.625C4004.29 153.292 4006.92 151.625 4009 149.625C4011.17 147.625 4013.04 144.917 4014.62 141.5C4018.62 132.417 4020.62 118.333 4020.62 99.25C4020.62 79.8333 4018.38 66.25 4013.88 58.5C4009.46 50.6667 4002.75 46.75 3993.75 46.75C3989.25 46.75 3985.29 47.8333 3981.88 50C3978.54 52.1667 3976 54.4167 3974.25 56.75C3972.58 59.0833 3970.83 64.0417 3969 71.625C3967.25 79.2083 3966.38 86.2083 3966.38 92.625L3965.88 99ZM3894 100L3894.25 97.25C3895.25 86.8333 3896.58 77.625 3898.25 69.625C3899.92 61.5417 3902.62 54 3906.38 47C3915.29 31.5833 3927.71 19.9167 3943.62 12C3959.62 4 3976.83 0 3995.25 0C4013.75 0 4030.54 3.70833 4045.62 11.125C4054.62 15.5417 4061.67 21.125 4066.75 27.875C4076.5 40.0417 4082.92 51.25 4086 61.5C4089.08 71.75 4090.62 83.5833 4090.62 97C4090.62 126.833 4084.46 149.583 4072.12 165.25L4066.38 172.875C4058.62 181.875 4047.67 188.833 4033.5 193.75C4019.33 198.583 4005.29 201.083 3991.38 201.25C3967.54 201.25 3948 196.25 3932.75 186.25C3906.92 169.5 3894 140.75 3894 100Z" fill="#FFEECC"/>
<path d="M4174.25 86.5C4173.25 110.083 4172.75 134.333 4172.75 159.25V196.5H4163.62L4160.5 196.375L4116.12 196.75C4113.29 196.75 4111.79 196.792 4111.62 196.875C4111.62 196.792 4111.79 196.083 4112.12 194.75V194L4112.25 193.5C4111.83 187.5 4111.62 180.208 4111.62 171.625L4112.12 32L4112 25.5V19.25L4111.75 7.5C4111.75 6.66667 4112.21 5.79167 4113.12 4.875H4130.25L4140.25 4.75C4163.75 4.75 4180.54 5.08333 4190.62 5.75C4200.79 6.41667 4208.08 6.75 4212.5 6.75C4214.92 21.0833 4218.5 40.0833 4223.25 63.75L4232.12 108.5H4236.5L4252.5 26.75C4252.75 25.5 4253.33 21.875 4254.25 15.875C4255.17 9.79167 4255.88 6.41667 4256.38 5.75H4256.88L4338.25 5L4343.12 5.125H4357.12C4357.88 5.45833 4358.29 7 4358.38 9.75L4359.62 57C4360.62 96.1667 4361.33 126.667 4361.75 148.5C4361.75 165.333 4361.5 181.125 4361 195.875C4360.75 196.875 4359.08 197.458 4356 197.625L4350.38 197.875C4345.88 198.042 4342.54 198.125 4340.38 198.125H4333.88C4325.79 198.208 4313.88 198.25 4298.12 198.25C4295.21 195.667 4293.75 184.5 4293.75 164.75L4294 125.5V115.375C4294 106.458 4293.96 99.875 4293.88 95.625L4289.12 94.75C4286.38 104.833 4281.08 127.292 4273.25 162.125L4272.12 167.125C4271.54 169.708 4270.54 174.333 4269.12 181C4267.79 187.583 4266.71 192.583 4265.88 196C4264.88 197.167 4260.46 197.75 4252.62 197.75H4251L4237 197.375L4229.38 197.5H4223.5L4213.62 197.625H4210.12C4206.29 197.625 4204.17 196.75 4203.75 195L4203.88 195.125L4192.5 145.5C4192.17 144.25 4191.42 141.542 4190.25 137.375C4189.08 133.125 4188.42 129.583 4188.25 126.75L4178.88 86.25L4174.25 86.5Z" fill="#FFEECC"/>
</svg>
