<svg width="3410" height="203" viewBox="0 0 3410 203" fill="none" xmlns="http://www.w3.org/2000/svg">
<path d="M160.7566371681416 134.63274336283183 160.6504424778761 147.26991150442478Q160.6504424778761 155.23451327433628 160.86283185840708 172.43805309734512Q159.37610619469027 174.45575221238937 137.28761061946904 174.45575221238937Q115.19911504424778 174.45575221238937 97.78318584070796 173.81858407079645Q97.57079646017698 173.60619469026548 95.7654867256637 171.16371681415927V154.1725663716814L95.97787610619469 121.57079646017698Q95.97787610619469 116.79203539823007 94.91592920353982 115.94247787610618Q93.85398230088495 115.0929203539823 88.43805309734513 115.0929203539823H86.95132743362831Q76.86283185840708 115.0929203539823 71.0221238938053 116.04867256637166V130.9159292035398L70.80973451327434 172.0132743362832Q69.21681415929203 173.71238938053096 44.15486725663717 173.71238938053096H39.057522123893804Q17.39380530973451 173.71238938053096 7.517699115044248 173.07522123893804Q5.5 172.43805309734512 5.5 157.99557522123894L6.137168141592921 134.52654867256638L7.1991150442477885 39.376106194690266V34.27876106194688Q7.3053097345132745 32.68584070796459 7.3053097345132745 23.181415929203524Q7.3053097345132745 13.676991150442461 8.47345132743363 11.128318584070797H9.004424778761063Q16.01327433628319 11.340707964601762 19.305309734513273 11.340707964601762H31.19911504424779L44.048672566371685 11.128318584070797H48.08407079646018Q66.13716814159291 11.128318584070797 69.11061946902655 15.269911504424783Q70.59734513274336 17.393805309734518 70.59734513274336 21.74778761061947L70.2787610619469 35.022123893805315V40.01327433628319L69.64159292035397 61.03982300884955Q69.64159292035397 63.37610619469025 69.96017699115043 67.19911504424778H76.54424778761062L79.19911504424778 67.30530973451326H87.69469026548671Q92.36725663716814 67.30530973451326 97.25221238938053 66.56194690265485V41.39380530973452L97.35840707964601 33.535398230088475V26.207964601769902L97.25221238938053 24.508849557522126V19.092920353982294Q97.25221238938053 12.827433628318573 97.8362831858407 11.446902654867245Q98.42035398230088 10.066371681415916 100.86283185840708 10.066371681415916L102.98672566371681 10.172566371681398H109.88938053097344L132.8274336283186 9.535398230088475Q160.22566371681415 9.535398230088475 160.22566371681415 13.889380530973455V21.429203539822993L160.33185840707966 23.977876106194685L160.22566371681415 29.5V45.96017699115043L160.7566371681416 113.71238938053096Q160.7566371681416 115.41150442477874 160.54424778761063 118.1725663716814V123.26991150442477Q160.54424778761063 126.66814159292034 160.7566371681416 132.19026548672565Z" fill="#FFEECC"/>
<path d="M182.42035398230087 39.48230088495575 181.88938053097343 11.553097345132727Q181.99557522123894 11.553097345132727 182.63274336283183 11.871681415929203Q263.34070796460173 10.491150442477874 304.22566371681415 10.384955752212392Q304.6504424778761 10.597345132743357 304.86283185840705 11.022123893805315V40.96902654867256Q304.86283185840705 45.32300884955751 304.6504424778761 48.08407079646017Q304.11946902654864 49.78318584070796 298.38495575221236 49.78318584070796H297.64159292035396Q271.9424778761062 49.78318584070796 244.11946902654864 48.933628318584056Q244.11946902654864 49.88938053097344 243.85398230088492 52.331858407079636Q243.58849557522123 54.77433628318583 243.48230088495575 55.8362831858407L242.9513274336283 59.87168141592919Q242.42035398230087 63.90707964601769 242.2079646017699 73.88938053097344L275.12831858407077 73.14601769911503Q283.6238938053097 72.93362831858406 287.44690265486724 72.93362831858406H289.146017699115Q295.6238938053097 72.93362831858406 297.64159292035396 73.30530973451326Q299.6592920353982 73.67699115044246 299.6592920353982 75.48230088495575L299.55309734513276 76.33185840707964V78.88053097345131L300.0840707964602 106.17256637168141L299.9778761061947 106.2787610619469V106.17256637168141Q267.6946902654867 107.7654867256637 248.3672566371681 107.7654867256637H243.37610619469024V133.4646017699115L301.03982300884957 131.6592920353982Q305.8185840707964 131.6592920353982 307.0929203539823 133.03982300884954Q306.9867256637168 135.8008849557522 306.9867256637168 140.89823008849555L307.7300884955752 169.78318584070794Q307.7300884955752 172.43805309734512 305.3938053097345 172.86283185840708L270.1371681415929 172.5442477876106Q259.7300884955752 172.5442477876106 228.7212389380531 173.287610619469L211.30530973451326 173.71238938053096Q192.82743362831857 174.3495575221239 183.90707964601768 174.3495575221239L183.58849557522123 174.13716814159292H183.6946902654867Q182.63274336283183 173.07522123893804 181.67699115044246 172.11946902654867V168.40265486725662L182.31415929203538 54.880530973451314Z" fill="#FFEECC"/>
<path d="M471.48230088495575 10.915929203539804 474.9867256637168 10.809734513274321Q476.0486725663717 11.340707964601762 476.57964601769913 13.464601769911496L473.3938053097345 19.730088495575217V19.623893805309734L466.4911504424779 32.89823008849555Q450.8805309734513 61.78318584070796 446.31415929203536 71.44690265486724L442.70353982300884 78.34955752212389Q436.86283185840705 89.60619469026548 422.8451327433628 118.06637168141592Q422.6327433628319 121.67699115044246 422.6327433628319 128.89823008849555V172.7566371681416Q422.10176991150445 174.45575221238937 420.5088495575221 174.45575221238937L359.6592920353982 174.88053097345133Q357.32300884955754 171.90707964601768 357.32300884955754 168.08407079646017L357.5353982300885 154.80973451327432V151.73008849557522L357.641592920354 148.5442477876106L357.74778761061947 140.79203539823007Q357.74778761061947 118.59734513274336 346.38495575221236 93.21681415929203Q343.9424778761062 87.90707964601769 339.2699115044248 78.24336283185839L323.44690265486724 46.59734513274336Q322.80973451327435 45.42920353982299 320.0486725663717 40.11946902654866Q317.28761061946904 34.80973451327432 313.99557522123894 28.650442477876084V28.756637168141594Q305.5 15.800884955752196 305.5 11.553097345132727Q305.5 11.022123893805315 308.89823008849555 11.022123893805315H336.19026548672565Q358.80973451327435 11.022123893805315 370.2787610619469 11.340707964601762Q373.67699115044246 11.977876106194685 388.0132743362832 62.42035398230088L392.7920353982301 79.30530973451326Q403.62389380530976 50.42035398230088 415.62389380530976 11.553097345132727Q415.7300884955752 10.703539823008839 431.34070796460173 10.703539823008839H444.93362831858406Q449.8185840707964 10.703539823008839 453.1106194690266 10.915929203539804Z" fill="#FFEECC"/>
<path d="M511.51769911504425 126.45575221238937 527.5530973451328 126.13716814159291Q542.1017699115044 126.13716814159291 542.1017699115044 127.30530973451326V127.73008849557522Q536.0486725663717 145.67699115044246 533.2876106194691 154.9159292035398L531.9070796460177 159.48230088495575Q531.3761061946902 161.5 530.1017699115044 165.21681415929203L526.7035398230089 176.15486725663715L519.8008849557523 195.90707964601768Q517.783185840708 197.5 498.2433628318584 197.5L493.783185840708 197.3938053097345H473.712389380531Q472.7566371681416 196.65044247787608 471.8008849557522 195.26991150442478Q472.22566371681415 193.78318584070794 473.1283185840708 188.9513274336283Q474.03097345132744 184.11946902654867 474.5619469026549 181.67699115044246L475.4115044247788 177.96017699115043Q476.0486725663717 175.0929203539823 477.429203539823 169.14601769911502Q478.80973451327435 163.19911504424778 479.65929203539827 159.48230088495575Q480.5088495575221 155.76548672566372 481.6769911504425 150.45575221238937Q486.77433628318585 128.6858407079646 488.7920353982301 126.66814159292034Q490.7035398230089 126.45575221238937 494.73893805309734 126.45575221238937Z" fill="#FFEECC"/>
<path d="M691.9424778761062 79.62389380530972Q690.6681415929204 109.67699115044246 690.6681415929204 141.429203539823V173.07522123893804H682.9159292035398L680.2610619469026 172.96902654867256L642.5619469026549 173.287610619469Q638.9513274336283 173.287610619469 638.7389380530973 173.3938053097345Q638.7389380530973 173.287610619469 639.1637168141593 171.58849557522123V170.9513274336283L639.2699115044247 170.52654867256635Q638.7389380530973 162.88053097345133 638.7389380530973 151.94247787610618L639.1637168141593 33.32300884955751L639.0575221238938 27.800884955752196V22.491150442477874L638.8451327433628 12.508849557522126Q638.8451327433628 11.446902654867245 640.0132743362832 10.27876106194688H654.5619469026549L663.0575221238938 10.172566371681398Q693.0044247787611 10.172566371681398 705.9070796460177 11.0221238938053Q718.8097345132743 11.871681415929203 724.4380530973451 11.871681415929203Q727.5176991150443 30.137168141592923 733.570796460177 60.29646017699115L741.1106194690266 98.31415929203538H744.8274336283185L758.4203539823009 28.862831858407077Q758.7389380530973 27.269911504424783 759.9070796460177 19.570796460176993Q761.0752212389381 11.871681415929203 761.712389380531 11.022123893805315H762.1371681415928L831.2699115044247 10.384955752212392L835.4115044247787 10.491150442477874H847.3053097345132Q848.2610619469026 10.915929203539804 848.3672566371681 14.420353982300867L849.429203539823 54.56194690265485Q850.7035398230089 104.47345132743362 851.2345132743362 132.29646017699113Q851.2345132743362 153.74778761061947 850.5973451327434 172.5442477876106Q850.2787610619469 173.81858407079645 846.3495575221239 174.0309734513274L841.570796460177 174.2433628318584Q835.8362831858407 174.45575221238937 833.0752212389381 174.45575221238937H827.5530973451328Q817.2522123893805 174.56194690265485 797.1814159292035 174.56194690265485Q793.4646017699115 171.26991150442475 793.4646017699115 146.10176991150442L793.6769911504425 112.75663716814158V104.15486725663716Q793.6769911504425 92.79203539823008 793.570796460177 87.37610619469025L789.5353982300885 86.63274336283185Q786.0309734513274 99.48230088495575 776.0486725663717 143.8716814159292L775.0929203539823 148.11946902654867Q774.3495575221239 151.41150442477874 772.5973451327434 159.85398230088492Q770.8451327433628 168.29646017699113 769.7831858407079 172.65044247787608Q768.5088495575221 174.13716814159292 758.5265486725664 174.13716814159292H757.146017699115L745.2522123893805 173.81858407079645L738.7743362831858 173.92477876106193H733.7831858407079L725.3938053097345 174.0309734513274H722.4203539823009Q717.5353982300885 174.0309734513274 717.0044247787611 171.8008849557522L717.1106194690266 171.90707964601768L707.4469026548672 129.74778761061947Q707.0221238938053 128.15486725663715 705.5353982300885 122.79203539823007Q704.0486725663717 117.42920353982299 703.8362831858407 113.81858407079645L695.8716814159292 79.41150442477876Z" fill="#FFEECC"/>
<path d="M1020.2964601769911 10.915929203539804 1023.8008849557522 10.809734513274321Q1024.862831858407 11.340707964601762 1025.3938053097345 13.464601769911496L1022.2079646017698 19.730088495575217V19.623893805309734L1015.3053097345132 32.89823008849555Q999.6946902654867 61.78318584070796 995.1283185840707 71.44690265486724L991.5176991150443 78.34955752212389Q985.6769911504424 89.60619469026548 971.6592920353982 118.06637168141592Q971.4469026548672 121.67699115044246 971.4469026548672 128.89823008849555V172.7566371681416Q970.9159292035398 174.45575221238937 969.3230088495575 174.45575221238937L908.4734513274336 174.88053097345133Q906.1371681415928 171.90707964601768 906.1371681415928 168.08407079646017L906.3495575221239 154.80973451327432V151.73008849557522L906.4557522123894 148.5442477876106L906.5619469026549 140.79203539823007Q906.5619469026549 118.59734513274336 895.1991150442477 93.21681415929203Q892.7566371681415 87.90707964601769 888.0840707964601 78.24336283185839L872.2610619469026 46.59734513274336Q871.6238938053096 45.42920353982299 868.8628318584069 40.11946902654866Q866.1017699115043 34.80973451327432 862.8097345132743 28.650442477876084V28.756637168141594Q854.3141592920354 15.800884955752196 854.3141592920354 11.553097345132727Q854.3141592920354 11.022123893805315 857.7123893805309 11.022123893805315H885.0044247787611Q907.6238938053096 11.022123893805315 919.0929203539822 11.340707964601762Q922.4911504424779 11.977876106194685 936.8274336283185 62.42035398230088L941.6061946902654 79.30530973451326Q952.4380530973451 50.42035398230088 964.4380530973451 11.553097345132727Q964.5442477876106 10.703539823008839 980.1548672566371 10.703539823008839H993.7477876106194Q998.6327433628318 10.703539823008839 1001.9247787610619 10.915929203539804Z" fill="#FFEECC"/>
<path d="M1268.4734513274336 96.6150442477876 1268.367256637168 103.73008849557522V143.02212389380531L1268.5796460176991 161.71238938053096V167.0221238938053L1268.6858407079646 172.0132743362832Q1268.0486725663718 172.86283185840708 1263.4823008849557 172.86283185840708H1260.7212389380531L1227.3761061946902 173.287610619469Q1206.137168141593 173.287610619469 1195.7300884955753 173.18141592920352Q1194.137168141593 171.48230088495575 1184.1548672566373 142.27876106194688L1163.8716814159293 88.43805309734512L1160.0486725663718 88.96902654867256L1159.9424778761063 99.8008849557522V128.5796460176991L1160.367256637168 157.358407079646V169.25221238938053Q1160.367256637168 174.0309734513274 1158.2433628318583 174.2433628318584Q1147.7300884955753 173.92477876106193 1138.1725663716816 173.92477876106193H1134.8805309734514L1118.845132743363 174.3495575221239H1116.7212389380531L1109.0752212389382 174.56194690265485L1108.7566371681417 174.3495575221239Q1105.2522123893805 171.0575221238938 1105.2522123893805 169.57079646017698V167.6592920353982L1105.358407079646 165.53539823008848L1105.8893805309735 124.11946902654867Q1105.8893805309735 55.94247787610618 1107.1637168141594 21.004424778761063L1107.3761061946902 12.19026548672565Q1107.3761061946902 11.23451327433628 1180.5442477876106 10.491150442477874Q1181.1814159292035 10.915929203539804 1182.4557522123894 15.163716814159272V14.845132743362825L1183.0929203539824 16.96902654867256Q1190.9513274336284 39.48230088495575 1202.20796460177 68.63274336283186Q1213.4646017699115 97.78318584070796 1213.6769911504425 98.42035398230088L1217.287610619469 98.2079646017699L1217.712389380531 11.65929203539821Q1217.712389380531 10.809734513274321 1233.216814159292 10.809734513274321L1259.8716814159293 11.340707964601762H1267.7300884955753Q1268.4734513274336 46.49115044247786 1268.4734513274336 96.6150442477876Z" fill="#FFEECC"/>
<path d="M1459.3053097345132 172.11946902654867Q1459.1991150442477 173.5 1453.4646017699115 173.5H1443.6946902654865L1437.1106194690265 173.60619469026548H1430.6327433628317L1420.3318584070796 173.71238938053096Q1404.933628318584 173.71238938053096 1394.7389380530972 172.96902654867256Q1394.4203539823009 172.86283185840708 1393.9955752212388 171.6946902654867L1393.4646017699115 169.4646017699115Q1392.5088495575221 158.52654867256635 1388.4734513274336 148.33185840707964L1343.0221238938052 148.7566371681416Q1342.5973451327432 150.56194690265485 1340.2610619469024 159.48230088495575Q1337.9247787610618 168.40265486725662 1336.7566371681414 172.96902654867256Q1335.6946902654865 174.0309734513274 1326.6681415929202 174.0309734513274L1324.013274336283 173.92477876106193H1317.8539823008848L1290.2433628318583 174.56194690265485H1287.0575221238937L1284.08407079646 174.66814159292034H1276.650442477876Q1275.9070796460176 173.92477876106193 1275.0575221238937 172.7566371681416Q1285.6769911504423 136.0132743362832 1303.8362831858406 81.64159292035397L1306.2787610619469 74.10176991150442H1306.1725663716813L1309.0398230088495 65.28761061946902Q1310.4203539823009 61.03982300884955 1316.9513274336282 41.71238938053097Q1323.4823008849557 22.38495575221239 1325.1283185840707 16.756637168141594Q1326.7743362831857 11.128318584070797 1327.0929203539822 10.915929203539804H1344.721238938053L1382.4203539823009 10.384955752212392L1392.6150442477874 10.915929203539804L1401.004424778761 10.384955752212392Q1407.3761061946902 10.384955752212392 1407.3761061946902 12.933628318584056Q1417.9955752212388 42.56194690265485 1435.7300884955753 98.2079646017699Q1453.4646017699115 153.85398230088495 1455.6946902654865 160.7566371681416L1457.1814159292035 166.06637168141592Q1457.9247787610618 168.93362831858406 1459.3053097345132 172.11946902654867ZM1354.1725663716813 114.13716814159291 1358.5265486725664 114.2433628318584 1383.9070796460176 114.13716814159291Q1382.3141592920354 101.49999999999999 1381.4646017699115 95.55309734513273L1377.429203539823 77.3938053097345Q1371.0575221238937 49.25221238938052 1370.8451327433627 48.721238938053084Q1370.6327433628317 48.19026548672565 1370.4734513274334 47.712389380530965Q1370.3141592920354 47.23451327433628 1370.2079646017698 47.07522123893805Q1370.1017699115043 46.91592920353982 1369.942477876106 46.49115044247787Q1369.7831858407078 46.066371681415916 1369.6238938053098 45.907079646017685Q1369.4646017699115 45.747787610619454 1369.2522123893805 45.42920353982299Q1368.5088495575221 44.15486725663716 1366.1725663716813 43.199115044247776Q1363.3053097345132 43.8362831858407 1349.075221238938 107.12831858407078L1347.9070796460176 114.13716814159291Z" fill="#FFEECC"/>
<path d="M1520.154867256637 79.62389380530972Q1518.8805309734512 109.67699115044246 1518.8805309734512 141.429203539823V173.07522123893804H1511.1283185840707L1508.4734513274336 172.96902654867256L1470.7743362831857 173.287610619469Q1467.1637168141592 173.287610619469 1466.9513274336282 173.3938053097345Q1466.9513274336282 173.287610619469 1467.3761061946902 171.58849557522123V170.9513274336283L1467.4823008849557 170.52654867256635Q1466.9513274336282 162.88053097345133 1466.9513274336282 151.94247787610618L1467.3761061946902 33.32300884955751L1467.2699115044247 27.800884955752196V22.491150442477874L1467.0575221238937 12.508849557522126Q1467.0575221238937 11.446902654867245 1468.225663716814 10.27876106194688H1482.7743362831857L1491.2699115044247 10.172566371681398Q1521.216814159292 10.172566371681398 1534.1194690265486 11.0221238938053Q1547.0221238938052 11.871681415929203 1552.650442477876 11.871681415929203Q1555.730088495575 30.137168141592923 1561.7831858407078 60.29646017699115L1569.3230088495575 98.31415929203538H1573.0398230088495L1586.6327433628317 28.862831858407077Q1586.9513274336282 27.269911504424783 1588.1194690265486 19.570796460176993Q1589.287610619469 11.871681415929203 1589.9247787610618 11.022123893805315H1590.3495575221239L1659.4823008849557 10.384955752212392L1663.6238938053098 10.491150442477874H1675.5176991150443Q1676.4734513274336 10.915929203539804 1676.579646017699 14.420353982300867L1677.641592920354 54.56194690265485Q1678.9159292035397 104.47345132743362 1679.4469026548672 132.29646017699113Q1679.4469026548672 153.74778761061947 1678.8097345132742 172.5442477876106Q1678.4911504424779 173.81858407079645 1674.5619469026549 174.0309734513274L1669.7831858407078 174.2433628318584Q1664.0486725663716 174.45575221238937 1661.287610619469 174.45575221238937H1655.7654867256635Q1645.4646017699115 174.56194690265485 1625.3938053097345 174.56194690265485Q1621.6769911504425 171.26991150442475 1621.6769911504425 146.10176991150442L1621.8893805309733 112.75663716814158V104.15486725663716Q1621.8893805309733 92.79203539823008 1621.7831858407078 87.37610619469025L1617.7477876106193 86.63274336283185Q1614.2433628318583 99.48230088495575 1604.2610619469026 143.8716814159292L1603.3053097345132 148.11946902654867Q1602.5619469026549 151.41150442477874 1600.8097345132742 159.85398230088492Q1599.0575221238937 168.29646017699113 1597.9955752212388 172.65044247787608Q1596.721238938053 174.13716814159292 1586.7389380530972 174.13716814159292H1585.358407079646L1573.4646017699115 173.81858407079645L1566.9867256637167 173.92477876106193H1561.9955752212388L1553.6061946902655 174.0309734513274H1550.6327433628317Q1545.7477876106193 174.0309734513274 1545.216814159292 171.8008849557522L1545.3230088495575 171.90707964601768L1535.6592920353983 129.74778761061947Q1535.2345132743362 128.15486725663715 1533.7477876106195 122.79203539823007Q1532.2610619469026 117.42920353982299 1532.0486725663716 113.81858407079645L1524.08407079646 79.41150442477876Z" fill="#FFEECC"/>
<path d="M1698.1371681415928 39.48230088495575 1697.6061946902653 11.553097345132727Q1697.7123893805308 11.553097345132727 1698.3495575221239 11.871681415929203Q1779.0575221238937 10.491150442477874 1819.942477876106 10.384955752212392Q1820.367256637168 10.597345132743357 1820.579646017699 11.022123893805315V40.96902654867256Q1820.579646017699 45.32300884955751 1820.367256637168 48.08407079646017Q1819.8362831858406 49.78318584070796 1814.1017699115043 49.78318584070796H1813.358407079646Q1787.659292035398 49.78318584070796 1759.8362831858406 48.933628318584056Q1759.8362831858406 49.88938053097344 1759.570796460177 52.331858407079636Q1759.3053097345132 54.77433628318583 1759.1991150442477 55.8362831858407L1758.6681415929202 59.87168141592919Q1758.1371681415928 63.90707964601769 1757.9247787610618 73.88938053097344L1790.8451327433627 73.14601769911503Q1799.3407079646017 72.93362831858406 1803.1637168141592 72.93362831858406H1804.862831858407Q1811.3407079646017 72.93362831858406 1813.358407079646 73.30530973451326Q1815.3761061946902 73.67699115044246 1815.3761061946902 75.48230088495575L1815.2699115044247 76.33185840707964V78.88053097345131L1815.800884955752 106.17256637168141L1815.6946902654865 106.2787610619469V106.17256637168141Q1783.4115044247787 107.7654867256637 1764.08407079646 107.7654867256637H1759.0929203539822V133.4646017699115L1816.7566371681414 131.6592920353982Q1821.5353982300885 131.6592920353982 1822.8097345132742 133.03982300884954Q1822.7035398230087 135.8008849557522 1822.7035398230087 140.89823008849555L1823.4469026548672 169.78318584070794Q1823.4469026548672 172.43805309734512 1821.1106194690265 172.86283185840708L1785.8539823008848 172.5442477876106Q1775.4469026548672 172.5442477876106 1744.4380530973451 173.287610619469L1727.0221238938052 173.71238938053096Q1708.5442477876104 174.3495575221239 1699.6238938053095 174.3495575221239L1699.3053097345132 174.13716814159292H1699.4115044247787Q1698.3495575221239 173.07522123893804 1697.3938053097345 172.11946902654867V168.40265486725662L1698.0309734513273 54.880530973451314Z" fill="#FFEECC"/>
<path d="M1911.6946902654868 159.58849557522123Q1911.6946902654868 138.03097345132744 1912.8628318584072 129.64159292035396Q1912.8628318584072 83.44690265486724 1914.137168141593 36.508849557522126Q1913.8185840707965 29.818584070796447 1913.8185840707965 23.022123893805315V19.517699115044252Q1913.3938053097345 16.225663716814154 1913.3938053097345 13.676991150442475Q1913.3938053097345 11.128318584070797 1913.924778761062 10.384955752212392Q1936.6504424778761 11.76548672566372 1953.7477876106195 11.76548672566372Q1970.845132743363 11.76548672566372 1977.2168141592922 11.128318584070797Q1977.429203539823 11.446902654867245 1977.5353982300885 12.933628318584056H1976.7920353982302V51.37610619469025L1977.5353982300885 137.81858407079645Q1977.5353982300885 138.77433628318585 1977.853982300885 139.41150442477874V139.62389380530973Q1978.1725663716816 140.26106194690266 1978.1725663716816 141.00442477876106L1979.0221238938054 171.90707964601768Q1978.4911504424779 173.07522123893804 1977.1106194690267 173.71238938053096H1973.5L1914.0309734513276 174.66814159292034Q1912.9690265486727 174.13716814159292 1911.2699115044247 173.07522123893804L1911.3761061946902 171.26991150442475Z" fill="#FFEECC"/>
<path d="M1996.7566371681414 127.0929203539823 2052.933628318584 126.13716814159291Q2055.0575221238937 126.13716814159291 2056.491150442478 129.74778761061947Q2057.924778761062 133.358407079646 2059.3053097345132 135.48230088495575Q2062.597345132743 140.5796460176991 2070.1902654867254 140.5796460176991Q2077.783185840708 140.5796460176991 2082.4557522123896 137.02212389380531Q2087.1283185840707 133.4646017699115 2087.1283185840707 127.8362831858407Q2087.1283185840707 122.2079646017699 2084.2610619469024 120.13716814159291Q2081.3938053097345 118.06637168141592 2077.995575221239 116.10176991150442Q2074.597345132743 114.13716814159291 2067.9601769911505 113.07522123893804Q2061.3230088495575 112.01327433628317 2060.6858407079644 111.8008849557522H2060.8982300884954L2054.8451327433627 110.2079646017699Q2049.004424778761 109.14601769911503 2045.075221238938 107.8716814159292Q2019.6946902654865 101.07522123893804 2008.3849557522121 90.77433628318583Q1997.075221238938 80.47345132743362 1997.075221238938 63.05752212389379Q1997.075221238938 50.42035398230088 2001.7477876106195 40.33185840707964Q2006.4203539823009 30.243362831858406 2013.9601769911503 23.871681415929203Q2035.730088495575 5.5 2074.066371681416 5.5Q2104.5442477876104 5.5 2121.9601769911505 16.5442477876106H2121.853982300885Q2133.004424778761 24.61504424778761 2137.146017699115 32.42035398230088Q2141.287610619469 40.225663716814154 2142.3495575221236 51.69469026548671L2139.5884955752213 54.45575221238937Q2111.6592920353983 55.51769911504424 2090.1017699115046 55.51769911504424Q2083.6238938053098 55.51769911504424 2082.3495575221236 51.69469026548671Q2081.8185840707965 50.10176991150442 2081.1814159292035 48.50884955752211Q2079.6946902654868 44.68584070796459 2071.6238938053098 44.68584070796459H2071.1991150442477Q2064.933628318584 44.68584070796459 2060.4734513274334 47.606194690265475Q2056.0132743362833 50.52654867256636 2055.9601769911505 53.28761061946902Q2055.907079646018 56.04867256637168 2057.1283185840707 57.85398230088495Q2058.3495575221236 59.659292035398224 2059.730088495575 60.72123893805309Q2061.1106194690265 61.78318584070796 2063.9778761061943 62.898230088495566Q2066.8451327433627 64.01327433628317 2068.278761061947 64.38495575221238Q2069.712389380531 64.75663716814158 2072.79203539823 65.60619469026548L2076.508849557522 66.56194690265485Q2078.738938053097 67.19911504424778 2089.517699115044 69.74778761061947Q2100.296460176991 72.29646017699115 2107.5176991150443 74.63274336283185V74.52654867256636Q2130.137168141593 82.17256637168141 2138.367256637168 93.58849557522123Q2146.597345132743 105.00442477876105 2146.597345132743 120.19026548672565Q2146.597345132743 160.65044247787608 2098.2787610619466 172.65044247787608Q2084.2610619469024 176.15486725663715 2068.3318584070794 177.64159292035396Q2048.79203539823 177.64159292035396 2029.6769911504425 171.90707964601768Q2010.5619469026549 166.1725663716814 2004.08407079646 153.21681415929203Q1999.730088495575 146.9513274336283 1998.2433628318581 141.6946902654867Q1996.7566371681414 136.43805309734512 1995.800884955752 126.98672566371681Q1996.1194690265486 127.0929203539823 1996.7566371681414 127.0929203539823Z" fill="#FFEECC"/>
<path d="M2290.8097345132746 79.62389380530972Q2289.5353982300885 109.67699115044246 2289.5353982300885 141.429203539823V173.07522123893804H2281.783185840708L2279.1283185840707 172.96902654867256L2241.429203539823 173.287610619469Q2237.8185840707965 173.287610619469 2237.6061946902655 173.3938053097345Q2237.6061946902655 173.287610619469 2238.0309734513276 171.58849557522123V170.9513274336283L2238.137168141593 170.52654867256635Q2237.6061946902655 162.88053097345133 2237.6061946902655 151.94247787610618L2238.0309734513276 33.32300884955751L2237.924778761062 27.800884955752196V22.491150442477874L2237.712389380531 12.508849557522126Q2237.712389380531 11.446902654867245 2238.880530973451 10.27876106194688H2253.429203539823L2261.924778761062 10.172566371681398Q2291.8716814159293 10.172566371681398 2304.774336283186 11.0221238938053Q2317.6769911504425 11.871681415929203 2323.3053097345132 11.871681415929203Q2326.3849557522126 30.137168141592923 2332.4380530973453 60.29646017699115L2339.977876106195 98.31415929203538H2343.6946902654868L2357.287610619469 28.862831858407077Q2357.6061946902655 27.269911504424783 2358.774336283186 19.570796460176993Q2359.9424778761063 11.871681415929203 2360.5796460176994 11.022123893805315H2361.004424778761L2430.137168141593 10.384955752212392L2434.278761061947 10.491150442477874H2446.1725663716816Q2447.1283185840707 10.915929203539804 2447.234513274336 14.420353982300867L2448.2964601769913 54.56194690265485Q2449.570796460177 104.47345132743362 2450.1017699115046 132.29646017699113Q2450.1017699115046 153.74778761061947 2449.4646017699115 172.5442477876106Q2449.146017699115 173.81858407079645 2445.216814159292 174.0309734513274L2440.4380530973453 174.2433628318584Q2434.703539823009 174.45575221238937 2431.9424778761063 174.45575221238937H2426.420353982301Q2416.119469026549 174.56194690265485 2396.048672566372 174.56194690265485Q2392.33185840708 171.26991150442475 2392.33185840708 146.10176991150442L2392.544247787611 112.75663716814158V104.15486725663716Q2392.544247787611 92.79203539823008 2392.4380530973453 87.37610619469025L2388.402654867257 86.63274336283185Q2384.8982300884954 99.48230088495575 2374.9159292035397 143.8716814159292L2373.9601769911505 148.11946902654867Q2373.216814159292 151.41150442477874 2371.4646017699115 159.85398230088492Q2369.712389380531 168.29646017699113 2368.6504424778764 172.65044247787608Q2367.3761061946902 174.13716814159292 2357.3938053097345 174.13716814159292H2356.0132743362833L2344.119469026549 173.81858407079645L2337.641592920354 173.92477876106193H2332.6504424778764L2324.261061946903 174.0309734513274H2321.287610619469Q2316.402654867257 174.0309734513274 2315.8716814159293 171.8008849557522L2315.977876106195 171.90707964601768L2306.3141592920356 129.74778761061947Q2305.8893805309735 128.15486725663715 2304.4026548672564 122.79203539823007Q2302.9159292035397 117.42920353982299 2302.703539823009 113.81858407079645L2294.7389380530976 79.41150442477876Z" fill="#FFEECC"/>
<path d="M2636.8982300884954 172.11946902654867Q2636.79203539823 173.5 2631.0575221238937 173.5H2621.287610619469L2614.7035398230087 173.60619469026548H2608.225663716814L2597.9247787610616 173.71238938053096Q2582.526548672566 173.71238938053096 2572.3318584070794 172.96902654867256Q2572.013274336283 172.86283185840708 2571.5884955752213 171.6946902654867L2571.0575221238937 169.4646017699115Q2570.101769911504 158.52654867256635 2566.0663716814156 148.33185840707964L2520.6150442477874 148.7566371681416Q2520.1902654867254 150.56194690265485 2517.853982300885 159.48230088495575Q2515.5176991150443 168.40265486725662 2514.3495575221236 172.96902654867256Q2513.287610619469 174.0309734513274 2504.2610619469024 174.0309734513274L2501.6061946902655 173.92477876106193H2495.4469026548672L2467.8362831858403 174.56194690265485H2464.650442477876L2461.6769911504425 174.66814159292034H2454.243362831858Q2453.5 173.92477876106193 2452.650442477876 172.7566371681416Q2463.2699115044247 136.0132743362832 2481.429203539823 81.64159292035397L2483.871681415929 74.10176991150442H2483.7654867256633L2486.6327433628317 65.28761061946902Q2488.013274336283 61.03982300884955 2494.5442477876104 41.71238938053097Q2501.075221238938 22.38495575221239 2502.721238938053 16.756637168141594Q2504.367256637168 11.128318584070797 2504.6858407079644 10.915929203539804H2522.314159292035L2560.013274336283 10.384955752212392L2570.2079646017696 10.915929203539804L2578.597345132743 10.384955752212392Q2584.9690265486724 10.384955752212392 2584.9690265486724 12.933628318584056Q2595.5884955752213 42.56194690265485 2613.3230088495575 98.2079646017699Q2631.0575221238937 153.85398230088495 2633.287610619469 160.7566371681416L2634.7743362831857 166.06637168141592Q2635.5176991150443 168.93362831858406 2636.8982300884954 172.11946902654867ZM2531.7654867256633 114.13716814159291 2536.1194690265484 114.2433628318584 2561.5 114.13716814159291Q2559.9070796460173 101.49999999999999 2559.0575221238937 95.55309734513273L2555.022123893805 77.3938053097345Q2548.650442477876 49.25221238938052 2548.438053097345 48.721238938053084Q2548.225663716814 48.19026548672565 2548.0663716814156 47.712389380530965Q2547.9070796460173 47.23451327433628 2547.800884955752 47.07522123893805Q2547.6946902654863 46.91592920353982 2547.5353982300885 46.49115044247787Q2547.3761061946902 46.066371681415916 2547.216814159292 45.907079646017685Q2547.0575221238937 45.747787610619454 2546.8451327433627 45.42920353982299Q2546.101769911504 44.15486725663716 2543.7654867256633 43.199115044247776Q2540.8982300884954 43.8362831858407 2526.66814159292 107.12831858407078L2525.5 114.13716814159291Z" fill="#FFEECC"/>
<path d="M2803.5176991150443 96.6150442477876 2803.4115044247787 103.73008849557522V143.02212389380531L2803.6238938053098 161.71238938053096V167.0221238938053L2803.730088495575 172.0132743362832Q2803.092920353982 172.86283185840708 2798.526548672566 172.86283185840708H2795.7654867256633L2762.4203539823006 173.287610619469Q2741.1814159292035 173.287610619469 2730.7743362831857 173.18141592920352Q2729.1814159292035 171.48230088495575 2719.1991150442477 142.27876106194688L2698.9159292035397 88.43805309734512L2695.092920353982 88.96902654867256L2694.9867256637167 99.8008849557522V128.5796460176991L2695.4115044247787 157.358407079646V169.25221238938053Q2695.4115044247787 174.0309734513274 2693.287610619469 174.2433628318584Q2682.7743362831857 173.92477876106193 2673.216814159292 173.92477876106193H2669.9247787610616L2653.889380530973 174.3495575221239H2651.7654867256633L2644.1194690265484 174.56194690265485L2643.800884955752 174.3495575221239Q2640.296460176991 171.0575221238938 2640.296460176991 169.57079646017698V167.6592920353982L2640.4026548672564 165.53539823008848L2640.933628318584 124.11946902654867Q2640.933628318584 55.94247787610618 2642.2079646017696 21.004424778761063L2642.4203539823006 12.19026548672565Q2642.4203539823006 11.23451327433628 2715.5884955752213 10.491150442477874Q2716.225663716814 10.915929203539804 2717.5 15.163716814159272V14.845132743362825L2718.1371681415926 16.96902654867256Q2725.9955752212386 39.48230088495575 2737.2522123893805 68.63274336283186Q2748.508849557522 97.78318584070796 2748.721238938053 98.42035398230088L2752.3318584070794 98.2079646017699L2752.7566371681414 11.65929203539821Q2752.7566371681414 10.809734513274321 2768.2610619469024 10.809734513274321L2794.9159292035397 11.340707964601762H2802.7743362831857Q2803.5176991150443 46.49115044247786 2803.5176991150443 96.6150442477876Z" fill="#FFEECC"/>
<path d="M2825.0752212389384 159.58849557522123Q2825.0752212389384 138.03097345132744 2826.2433628318586 129.64159292035396Q2826.2433628318586 83.44690265486724 2827.5176991150443 36.508849557522126Q2827.1991150442477 29.818584070796447 2827.1991150442477 23.022123893805315V19.517699115044252Q2826.774336283186 16.225663716814154 2826.774336283186 13.676991150442475Q2826.774336283186 11.128318584070797 2827.3053097345132 10.384955752212392Q2850.0309734513276 11.76548672566372 2867.128318584071 11.76548672566372Q2884.2256637168143 11.76548672566372 2890.5973451327436 11.128318584070797Q2890.8097345132746 11.446902654867245 2890.91592920354 12.933628318584056H2890.1725663716816V51.37610619469025L2890.91592920354 137.81858407079645Q2890.91592920354 138.77433628318585 2891.234513274336 139.41150442477874V139.62389380530973Q2891.5530973451328 140.26106194690266 2891.5530973451328 141.00442477876106L2892.402654867257 171.90707964601768Q2891.8716814159293 173.07522123893804 2890.491150442478 173.71238938053096H2886.8805309734516L2827.4115044247787 174.66814159292034Q2826.349557522124 174.13716814159292 2824.6504424778764 173.07522123893804L2824.756637168142 171.26991150442475Z" fill="#FFEECC"/>
<path d="M3045.5353982300885 50.42035398230088Q3045.5353982300885 53.924778761061944 3044.79203539823 53.924778761061944Q3044.79203539823 53.924778761061944 3006.349557522124 53.60619469026548Q3006.137168141593 63.90707964601769 3006.137168141593 85.78318584070794Q3006.137168141593 107.65929203539821 3006.2433628318586 116.15486725663716L3006.66814159292 172.43805309734512Q3006.137168141593 173.92477876106193 3004.5442477876104 174.0309734513274L2982.137168141593 173.71238938053096L2982.0309734513276 173.81858407079645L2975.022123893805 173.71238938053096H2955.5884955752213Q2947.7300884955753 173.71238938053096 2943.8008849557523 173.81858407079645L2941.995575221239 172.22566371681415Q2941.8893805309735 172.11946902654867 2940.6150442477874 170.52654867256635Q2940.6150442477874 161.18141592920352 2941.358407079646 129.00442477876106L2942.5265486725666 72.50884955752211L2942.3141592920356 69.85398230088495Q2941.570796460177 59.34070796460176 2940.8805309734516 57.37610619469026Q2940.190265486726 55.411504424778755 2938.1725663716816 55.252212389380524Q2936.1548672566373 55.092920353982294 2935.1991150442477 55.092920353982294L2930.951327433628 55.30530973451326L2904.6150442477874 54.880530973451314Q2903.234513274336 52.11946902654866 2903.234513274336 42.45575221238937L2903.4469026548672 33.110619469026545V30.243362831858406Q2903.3407079646017 13.252212389380531 2903.1283185840707 12.084070796460168Q2903.3407079646017 12.084070796460168 2903.977876106195 12.296460176991133L3039.163716814159 11.128318584070797Q3043.3053097345132 11.128318584070797 3044.367256637168 11.712389380530965Q3045.429203539823 12.296460176991133 3045.429203539823 13.889380530973455V41.92477876106193Z" fill="#FFEECC"/>
<path d="M3055.6238938053098 39.48230088495575 3055.092920353982 11.553097345132727Q3055.1991150442477 11.553097345132727 3055.836283185841 11.871681415929203Q3136.5442477876104 10.491150442477874 3177.429203539823 10.384955752212392Q3177.853982300885 10.597345132743357 3178.066371681416 11.022123893805315V40.96902654867256Q3178.066371681416 45.32300884955751 3177.853982300885 48.08407079646017Q3177.3230088495575 49.78318584070796 3171.5884955752213 49.78318584070796H3170.8451327433627Q3145.146017699115 49.78318584070796 3117.3230088495575 48.933628318584056Q3117.3230088495575 49.88938053097344 3117.0575221238937 52.331858407079636Q3116.79203539823 54.77433628318583 3116.6858407079644 55.8362831858407L3116.1548672566373 59.87168141592919Q3115.6238938053098 63.90707964601769 3115.4115044247787 73.88938053097344L3148.33185840708 73.14601769911503Q3156.8274336283184 72.93362831858406 3160.650442477876 72.93362831858406H3162.349557522124Q3168.8274336283184 72.93362831858406 3170.8451327433627 73.30530973451326Q3172.862831858407 73.67699115044246 3172.862831858407 75.48230088495575L3172.7566371681414 76.33185840707964V78.88053097345131L3173.287610619469 106.17256637168141L3173.1814159292035 106.2787610619469V106.17256637168141Q3140.8982300884954 107.7654867256637 3121.570796460177 107.7654867256637H3116.579646017699V133.4646017699115L3174.2433628318586 131.6592920353982Q3179.022123893805 131.6592920353982 3180.2964601769913 133.03982300884954Q3180.190265486726 135.8008849557522 3180.190265486726 140.89823008849555L3180.933628318584 169.78318584070794Q3180.933628318584 172.43805309734512 3178.597345132743 172.86283185840708L3143.3407079646017 172.5442477876106Q3132.933628318584 172.5442477876106 3101.924778761062 173.287610619469L3084.508849557522 173.71238938053096Q3066.0309734513276 174.3495575221239 3057.1106194690265 174.3495575221239L3056.79203539823 174.13716814159292H3056.8982300884954Q3055.836283185841 173.07522123893804 3054.880530973451 172.11946902654867V168.40265486725662L3055.5176991150443 54.880530973451314Z" fill="#FFEECC"/>
<path d="M3196.0132743362833 118.1725663716814 3208.756637168142 118.2787610619469H3212.473451327434L3213.853982300885 118.1725663716814L3231.8008849557523 118.49115044247787Q3236.5796460176994 118.80973451327432 3237.110619469027 124.43805309734512Q3237.3230088495575 126.66814159292034 3237.641592920354 128.89823008849555Q3238.3849557522126 134.2079646017699 3245.340707964602 134.2079646017699Q3252.2964601769913 134.2079646017699 3254.20796460177 127.62389380530973Q3255.5884955752213 122.52654867256636 3255.5884955752213 115.51769911504424V112.75663716814158H3255.2699115044247L3254.845132743363 97.67699115044246Q3254.420353982301 82.91592920353982 3254.420353982301 54.030973451327434Q3254.420353982301 25.14601769911505 3254.845132743363 12.19026548672565L3254.7389380530976 12.084070796460168Q3254.7389380530976 11.23451327433628 3255.3761061946902 10.809734513274321L3256.756637168142 10.597345132743357L3261.9601769911505 10.703539823008839H3300.827433628319L3308.5796460176994 10.597345132743357H3318.986725663717Q3319.836283185841 10.597345132743357 3320.261061946903 11.553097345132727Q3320.048672566372 13.889380530973455 3320.048672566372 18.668141592920335V20.36725663716814L3319.9424778761063 22.1725663716814L3319.7300884955753 27.58849557522123Q3318.986725663717 47.765486725663706 3318.986725663717 87.48230088495575V99.16371681415929Q3318.986725663717 114.13716814159291 3318.8805309734516 124.1725663716814Q3318.774336283186 134.2079646017699 3313.9424778761068 144.2433628318584Q3309.110619469027 154.27876106194688 3301.8362831858412 160.27876106194688Q3294.561946902655 166.27876106194688 3285.0044247787614 170.2079646017699Q3268.119469026549 177.11061946902655 3249.7477876106195 177.11061946902655Q3231.3761061946902 177.11061946902655 3219.057522123894 173.3938053097345Q3208.119469026549 170.63274336283186 3200.9513274336286 164.9513274336283Q3193.783185840708 159.26991150442475 3189.853982300885 154.1725663716814Q3181.1460176991154 142.70353982300884 3181.1460176991154 125.92477876106193V123.16371681415927L3181.03982300885 121.88938053097344Q3181.03982300885 117.74778761061947 3182.3141592920356 117.74778761061947Z" fill="#FFEECC"/>
<path d="M3341.1814159292035 24.508849557522126 3340.438053097345 11.65929203539821Q3340.438053097345 10.384955752212392 3357.5353982300885 9.960176991150433H3363.4823008849557L3370.2787610619466 9.429203539822993Q3376.7566371681414 8.89823008849558 3396.296460176991 8.685840707964587Q3403.836283185841 8.685840707964587 3404.0486725663714 11.022123893805315L3402.5619469026547 30.98672566371681Q3397.995575221239 85.99557522123892 3395.1283185840707 111.26991150442477Q3394.9159292035397 113.287610619469 3385.146017699115 113.287610619469H3378.7743362831857L3376.650442477876 113.18141592920352L3372.296460176991 113.287610619469H3368.048672566372L3359.1283185840707 113.3938053097345H3355.836283185841L3354.243362831858 113.5H3350.101769911504Q3346.4911504424776 111.90707964601769 3346.2787610619466 100.86283185840706Q3346.2787610619466 95.44690265486724 3346.172566371681 94.17256637168141L3345.1106194690265 80.36725663716813Q3345.004424778761 79.0929203539823 3344.579646017699 74.10176991150442Q3344.154867256637 69.11061946902655 3344.048672566372 66.56194690265485ZM3398.738938053097 137.92477876106193Q3398.738938053097 138.03097345132744 3398.6858407079644 138.29646017699116Q3398.6327433628317 138.56194690265485 3398.6327433628317 152.5796460176991Q3398.6327433628317 166.59734513274336 3399.0575221238937 172.11946902654867Q3397.8893805309735 173.18141592920352 3378.243362831858 173.92477876106193H3376.1194690265484L3354.66814159292 174.3495575221239H3353.8185840707965Q3348.08407079646 174.56194690265485 3345.429203539823 174.56194690265485L3344.367256637168 172.96902654867256L3342.5619469026547 171.26991150442475Q3342.5619469026547 158.10176991150442 3343.4646017699115 147.11061946902655Q3344.367256637168 136.11946902654867 3344.579646017699 136.11946902654867Q3382.384955752212 136.11946902654867 3390.5619469026547 136.38495575221236Q3398.738938053097 136.65044247787608 3398.738938053097 137.92477876106193Z" fill="#FFEECC"/>
</svg>
