<svg width="676" height="51" viewBox="0 0 676 51" fill="none" xmlns="http://www.w3.org/2000/svg">
<path d="M15.6562 21.625C15.4062 27.5208 15.2812 33.5833 15.2812 39.8125V49.125H13L12.2188 49.0938L1.125 49.1875C0.416667 49.1875 0.0416667 49.1979 0 49.2188C0 49.1979 0.0416667 49.0208 0.125 48.6875V48.5L0.15625 48.375C0.0520833 46.875 0 45.0521 0 42.9062L0.125 8L0.09375 6.375V4.8125L0.03125 1.875C0.03125 1.66667 0.145833 1.44792 0.375 1.21875H4.65625L7.15625 1.1875C13.0312 1.1875 17.2292 1.27083 19.75 1.4375C22.2917 1.60417 24.1146 1.6875 25.2188 1.6875C25.8229 5.27083 26.7188 10.0208 27.9062 15.9375L30.125 27.125H31.2188L35.2188 6.6875C35.2812 6.375 35.4271 5.46875 35.6562 3.96875C35.8854 2.44792 36.0625 1.60417 36.1875 1.4375H36.3125L56.6562 1.25L57.875 1.28125H61.375C61.5625 1.36458 61.6667 1.75 61.6875 2.4375L62 14.25C62.25 24.0417 62.4271 31.6667 62.5312 37.125C62.5312 41.3333 62.4688 45.2812 62.3438 48.9688C62.2812 49.2188 61.8646 49.3646 61.0938 49.4062L59.6875 49.4688C58.5625 49.5104 57.7292 49.5312 57.1875 49.5312H55.5625C53.5417 49.5521 50.5625 49.5625 46.625 49.5625C45.8958 48.9167 45.5312 46.125 45.5312 41.1875L45.5938 31.375V28.8438C45.5938 26.6146 45.5833 24.9688 45.5625 23.9062L44.375 23.6875C43.6875 26.2083 42.3646 31.8229 40.4062 40.5312L40.125 41.7812C39.9792 42.4271 39.7292 43.5833 39.375 45.25C39.0417 46.8958 38.7708 48.1458 38.5625 49C38.3125 49.2917 37.2083 49.4375 35.25 49.4375H34.8438L31.3438 49.3438L29.4375 49.375H27.9688L25.5 49.4062H24.625C23.6667 49.4062 23.1354 49.1875 23.0312 48.75L23.0625 48.7812L20.2188 36.375C20.1354 36.0625 19.9479 35.3854 19.6562 34.3438C19.3646 33.2812 19.1979 32.3958 19.1562 31.6875L16.8125 21.5625L15.6562 21.625ZM117.531 48.8438C117.51 49.1146 116.938 49.25 115.812 49.25H112.938L111 49.2812H109.094L106.062 49.3125C103.042 49.3125 100.531 49.2396 98.5312 49.0938C98.4688 49.0729 98.3958 48.9479 98.3125 48.7188L98.1562 48.0625C97.9688 45.9167 97.4792 43.8438 96.6875 41.8438L83.3125 41.9688C83.2292 42.3229 82.9583 43.375 82.5 45.125C82.0417 46.875 81.6979 48.1979 81.4688 49.0938C81.2604 49.3021 80.2708 49.4062 78.5 49.4062L77.7188 49.375H75.9062L67.7812 49.5625H66.8438L65.9688 49.5938H63.7812C63.6354 49.4479 63.4792 49.2604 63.3125 49.0312C65.3958 41.8229 68.2188 32.8854 71.7812 22.2188L72.5 20H72.4688L73.3125 17.4062C73.5833 16.5729 74.3542 14.2604 75.625 10.4688C76.9167 6.67708 77.7188 4.22917 78.0312 3.125C78.3646 2.02083 78.5625 1.44792 78.625 1.40625H83.8125L94.9062 1.25L97.9062 1.40625L100.375 1.25C101.625 1.25 102.25 1.5 102.25 2C104.333 7.8125 107.115 16.1771 110.594 27.0938C114.073 38.0104 116.031 44.1458 116.469 45.5L116.906 47.0625C117.052 47.625 117.26 48.2188 117.531 48.8438ZM86.5938 31.7812L87.875 31.8125L95.3438 31.7812C95.0312 29.3021 94.7917 27.4792 94.625 26.3125L93.4375 20.9688C92.1875 15.4479 91.5417 12.6354 91.5 12.5312C91.4583 12.4271 91.4167 12.3333 91.375 12.25C91.3542 12.1458 91.3333 12.0833 91.3125 12.0625C91.2917 12.0208 91.2604 11.9583 91.2188 11.875C91.1979 11.7917 91.1667 11.7396 91.125 11.7188C91.1042 11.6771 91.0729 11.625 91.0312 11.5625C90.8854 11.3125 90.5833 11.0938 90.125 10.9062C89.5625 11.0312 87.8854 17.3021 85.0938 29.7188L84.75 31.7812H86.5938ZM166.594 26.625L166.562 28.7188V40.2812L166.625 45.7812V47.3438L166.656 48.8125C166.531 48.9792 166.021 49.0625 165.125 49.0625H164.312L154.5 49.1875C150.333 49.1875 147.229 49.1771 145.188 49.1562C144.875 48.8229 143.74 45.7917 141.781 40.0625L135.812 24.2188L134.688 24.375L134.656 27.5625V36.0312L134.781 44.5V48C134.781 48.9375 134.573 49.4271 134.156 49.4688C132.094 49.4062 130.125 49.375 128.25 49.375H127.281L122.562 49.5H121.938L119.688 49.5625L119.594 49.5C118.906 48.8542 118.562 48.3854 118.562 48.0938V47.5312L118.594 46.9062L118.75 34.7188C118.75 21.3438 118.875 11.2292 119.125 4.375L119.188 1.78125C119.188 1.59375 126.365 1.42708 140.719 1.28125C140.844 1.36458 141.031 1.82292 141.281 2.65625V2.5625L141.469 3.1875C143.01 7.60417 144.885 12.6771 147.094 18.4062C149.302 24.1146 150.427 27.0312 150.469 27.1562L151.531 27.0938L151.656 1.625C151.656 1.45833 153.177 1.375 156.219 1.375L164.062 1.53125H166.375C166.521 8.42708 166.594 16.7917 166.594 26.625ZM172.969 45.1562C172.969 40.9271 173.083 37.9896 173.312 36.3438C173.312 27.2812 173.438 18.1458 173.688 8.9375C173.625 7.625 173.594 6.30208 173.594 4.96875V3.9375C173.51 3.29167 173.469 2.71875 173.469 2.21875C173.469 1.71875 173.521 1.39583 173.625 1.25C178.083 1.52083 181.99 1.65625 185.344 1.65625C188.698 1.65625 191 1.59375 192.25 1.46875C192.292 1.53125 192.323 1.70833 192.344 2H192.125V13.3125L192.344 38.75C192.344 38.9375 192.375 39.0938 192.438 39.2188V39.2812C192.5 39.4062 192.531 39.5417 192.531 39.6875L192.781 48.7812C192.677 49.0104 192.49 49.1875 192.219 49.3125H191.156L173.656 49.5938C173.448 49.4896 173.177 49.3333 172.844 49.125L172.875 48.5938L172.969 45.1562ZM237.844 13.0312C237.844 13.7188 237.771 14.0625 237.625 14.0625C237.625 14.0625 233.854 14.0312 226.312 13.9688C226.271 15.9896 226.25 19.1458 226.25 23.4375C226.25 27.7292 226.26 30.7083 226.281 32.375L226.406 48.9375C226.302 49.2292 226.094 49.3854 225.781 49.4062L219.188 49.3125L219.156 49.3438L217.094 49.3125H211.375C209.833 49.3125 208.677 49.3229 207.906 49.3438L207.375 48.875C207.354 48.8542 207.219 48.6875 206.969 48.375C206.969 46.5417 207.042 42.4688 207.188 36.1562L207.531 19.5312L207.469 18.75C207.323 16.6875 207.177 15.4688 207.031 15.0938C206.906 14.6979 206.646 14.4896 206.25 14.4688C205.854 14.4271 205.562 14.4062 205.375 14.4062L204.125 14.4688L196.375 14.3438C196.104 13.8021 195.969 12.5833 195.969 10.6875L196.031 7.9375V7.09375C196.01 3.76042 195.979 1.97917 195.938 1.75C195.979 1.75 196.062 1.77083 196.188 1.8125L235.969 1.46875C236.781 1.46875 237.292 1.53125 237.5 1.65625C237.708 1.76042 237.812 1.96875 237.812 2.28125V10.5312L237.844 13.0312ZM240.812 9.8125L240.656 1.59375C240.677 1.59375 240.75 1.625 240.875 1.6875C256.708 1.41667 268.635 1.27083 276.656 1.25C276.74 1.29167 276.802 1.35417 276.844 1.4375V10.25C276.844 11.1042 276.823 11.8021 276.781 12.3438C276.677 12.6771 276.062 12.8438 274.938 12.8438H274.719C269.677 12.8438 264.427 12.7604 258.969 12.5938C258.969 12.7812 258.938 13.1146 258.875 13.5938C258.833 14.0729 258.802 14.4167 258.781 14.625L258.625 15.8125C258.521 16.6042 258.448 17.9792 258.406 19.9375L268.094 19.7188C269.76 19.6771 270.969 19.6562 271.719 19.6562H272.219C273.49 19.6562 274.323 19.6979 274.719 19.7812C275.115 19.8438 275.312 20.0521 275.312 20.4062L275.281 20.6562V21.4062L275.438 29.4375L275.406 29.4688V29.4375C269.073 29.75 264.01 29.9062 260.219 29.9062H258.75V37.4688L275.719 36.9375C276.656 36.9375 277.25 37.0729 277.5 37.3438C277.479 37.8854 277.469 38.6562 277.469 39.6562L277.688 48.1562C277.688 48.6771 277.458 48.9792 277 49.0625L266.625 48.9688C264.583 48.9688 260.521 49.0417 254.438 49.1875L249.312 49.3125C245.688 49.4375 243 49.5 241.25 49.5L241.156 49.4375H241.188C240.979 49.2292 240.781 49.0312 240.594 48.8438V47.75L240.781 14.3438L240.812 9.8125ZM282.125 32.9688L285.875 33H286.969L287.375 32.9688L292.656 33.0625C293.594 33.125 294.115 33.7083 294.219 34.8125C294.26 35.25 294.312 35.6875 294.375 36.125C294.521 37.1667 295.271 37.6875 296.625 37.6875C298 37.6875 298.875 37.0417 299.25 35.75C299.521 34.75 299.656 33.5625 299.656 32.1875V31.375H299.562L299.438 26.9375C299.354 24.0417 299.312 19.7604 299.312 14.0938C299.312 8.42708 299.354 4.32292 299.438 1.78125L299.406 1.75C299.406 1.58333 299.469 1.45833 299.594 1.375L300 1.3125L301.531 1.34375H312.969L315.25 1.3125H318.312C318.479 1.3125 318.604 1.40625 318.688 1.59375C318.646 2.05208 318.625 2.75 318.625 3.6875V4.1875L318.594 4.71875L318.531 6.3125C318.385 10.2708 318.312 16.1458 318.312 23.9375V27.375C318.312 30.3125 318.302 32.7708 318.281 34.75C318.26 36.7083 317.771 38.6771 316.812 40.6562C315.875 42.6146 314.688 44.1875 313.25 45.375C311.833 46.5417 310.188 47.5104 308.312 48.2812C305 49.6354 301.542 50.3125 297.938 50.3125C294.333 50.3125 291.323 49.9479 288.906 49.2188C286.76 48.6771 284.979 47.8542 283.562 46.75C282.167 45.625 281.083 44.5625 280.312 43.5625C278.604 41.3125 277.75 38.5417 277.75 35.25V34.4375L277.719 34.0625C277.719 33.25 277.844 32.8438 278.094 32.8438L282.125 32.9688ZM359.75 1.25L365.594 1.15625C375.781 1.15625 382.938 2.84375 387.062 6.21875C387.938 6.86458 388.896 7.94792 389.938 9.46875C392.958 13.8646 394.469 18.7188 394.469 24.0312C394.469 33.5104 391.208 40.5208 384.688 45.0625C380.792 47.7917 376.312 49.1771 371.25 49.2188L371.125 49.3438H370.344L362.031 49.25C358.26 49.25 353.542 49.3438 347.875 49.5312C347.479 48.7812 347.281 47.8958 347.281 46.875L347.312 45.75V40.875L347.375 33.9375V22.5C347.333 19.875 347.312 17.9167 347.312 16.625V11.5L347.344 10.7812V1.84375C347.344 1.67708 348.479 1.54167 350.75 1.4375C353.021 1.3125 354.833 1.25 356.188 1.25H359.75ZM373 12.0625C371.812 11.2083 370.5 10.7292 369.062 10.625C368.562 10.6042 367.875 10.5833 367 10.5625C366.146 10.5417 365.521 10.5208 365.125 10.5C364.75 11.0625 364.5 11.4792 364.375 11.75L363.812 12.9062V14.6562C363.812 18.2604 363.896 23.1458 364.062 29.3125L364.25 38.3438C364.375 38.9896 364.792 39.375 365.5 39.5C367.646 39.4583 369.302 39.3125 370.469 39.0625C374.573 37.6042 376.625 32.6146 376.625 24.0938C376.625 17.7812 375.417 13.7708 373 12.0625ZM414.25 24.75C414.25 24.7708 414.24 24.8229 414.219 24.9062V25C414.135 25.875 414.094 26.8542 414.094 27.9375C414.094 29.0208 414.177 30.1667 414.344 31.375C414.531 32.5833 414.823 33.7917 415.219 35C415.635 36.2083 416.271 37.1875 417.125 37.9375C418.042 38.7292 419.062 39.125 420.188 39.125C421.333 39.125 422.292 38.9688 423.062 38.6562C423.854 38.3229 424.51 37.9062 425.031 37.4062C425.573 36.9062 426.042 36.2292 426.438 35.375C427.438 33.1042 427.938 29.5833 427.938 24.8125C427.938 19.9583 427.375 16.5625 426.25 14.625C425.146 12.6667 423.469 11.6875 421.219 11.6875C420.094 11.6875 419.104 11.9583 418.25 12.5C417.417 13.0417 416.781 13.6042 416.344 14.1875C415.927 14.7708 415.49 16.0104 415.031 17.9062C414.594 19.8021 414.375 21.5521 414.375 23.1562L414.25 24.75ZM396.281 25L396.344 24.3125C396.594 21.7083 396.927 19.4062 397.344 17.4062C397.76 15.3854 398.438 13.5 399.375 11.75C401.604 7.89583 404.708 4.97917 408.688 3C412.688 1 416.99 0 421.594 0C426.219 0 430.417 0.927083 434.188 2.78125C436.438 3.88542 438.198 5.28125 439.469 6.96875C441.906 10.0104 443.51 12.8125 444.281 15.375C445.052 17.9375 445.438 20.8958 445.438 24.25C445.438 31.7083 443.896 37.3958 440.812 41.3125L439.375 43.2188C437.438 45.4688 434.698 47.2083 431.156 48.4375C427.615 49.6458 424.104 50.2708 420.625 50.3125C414.667 50.3125 409.781 49.0625 405.969 46.5625C399.51 42.375 396.281 35.1875 396.281 25ZM487.219 13.0312C487.219 13.7188 487.146 14.0625 487 14.0625C487 14.0625 483.229 14.0312 475.688 13.9688C475.646 15.9896 475.625 19.1458 475.625 23.4375C475.625 27.7292 475.635 30.7083 475.656 32.375L475.781 48.9375C475.677 49.2292 475.469 49.3854 475.156 49.4062L468.562 49.3125L468.531 49.3438L466.469 49.3125H460.75C459.208 49.3125 458.052 49.3229 457.281 49.3438L456.75 48.875C456.729 48.8542 456.594 48.6875 456.344 48.375C456.344 46.5417 456.417 42.4688 456.562 36.1562L456.906 19.5312L456.844 18.75C456.698 16.6875 456.552 15.4688 456.406 15.0938C456.281 14.6979 456.021 14.4896 455.625 14.4688C455.229 14.4271 454.938 14.4062 454.75 14.4062L453.5 14.4688L445.75 14.3438C445.479 13.8021 445.344 12.5833 445.344 10.6875L445.406 7.9375V7.09375C445.385 3.76042 445.354 1.97917 445.312 1.75C445.354 1.75 445.438 1.77083 445.562 1.8125L485.344 1.46875C486.156 1.46875 486.667 1.53125 486.875 1.65625C487.083 1.76042 487.188 1.96875 487.188 2.28125V10.5312L487.219 13.0312ZM510.531 23.5938C511.031 18.8438 511.865 15.2708 513.031 12.875C515.26 8.25 518.583 4.96875 523 3.03125C526.938 1.30208 531.219 0.4375 535.844 0.4375C543.594 0.4375 549.25 2.5625 552.812 6.8125C554.958 9.33333 556.198 12.4688 556.531 16.2188L556.812 19.1562C556.458 19.4896 554.219 19.6562 550.094 19.6562L545.125 19.5938H544.719L542 19.5312L541.25 19.5625H540.625C540.042 19.5625 539.594 18.7083 539.281 17C538.99 15.2917 538.531 14.1667 537.906 13.625C537.302 13.0625 536.594 12.7812 535.781 12.7812C534.969 12.7812 534.25 12.9271 533.625 13.2188C533.021 13.5104 532.521 13.8646 532.125 14.2812C531.729 14.6771 531.396 15.25 531.125 16C530.625 17.2917 530.323 18.6667 530.219 20.125C530.115 21.5625 530.062 23.1771 530.062 24.9688V25.7188L529.938 28.875C529.938 34.625 531.562 37.5625 534.812 37.6875C535.646 37.6875 536.229 37.5417 536.562 37.25C537.458 36.4583 538.24 34.8646 538.906 32.4688C539.052 31.9688 539.229 31.5625 539.438 31.25H540.625L542.062 31.2812H547.125L548.656 31.25L551.625 31.2812H553.438L555.281 31.3125H556.531C556.781 31.3333 556.958 31.5521 557.062 31.9688L556.969 33C556.781 35.4583 556.208 37.6875 555.25 39.6875C553.479 43.3542 550.688 46.0833 546.875 47.875C543.083 49.6458 538.917 50.5312 534.375 50.5312C526.438 50.5312 520.479 48.1875 516.5 43.5C512.521 38.8125 510.531 32.1771 510.531 23.5938ZM576.688 24.75C576.688 24.7708 576.677 24.8229 576.656 24.9062V25C576.573 25.875 576.531 26.8542 576.531 27.9375C576.531 29.0208 576.615 30.1667 576.781 31.375C576.969 32.5833 577.26 33.7917 577.656 35C578.073 36.2083 578.708 37.1875 579.562 37.9375C580.479 38.7292 581.5 39.125 582.625 39.125C583.771 39.125 584.729 38.9688 585.5 38.6562C586.292 38.3229 586.948 37.9062 587.469 37.4062C588.01 36.9062 588.479 36.2292 588.875 35.375C589.875 33.1042 590.375 29.5833 590.375 24.8125C590.375 19.9583 589.812 16.5625 588.688 14.625C587.583 12.6667 585.906 11.6875 583.656 11.6875C582.531 11.6875 581.542 11.9583 580.688 12.5C579.854 13.0417 579.219 13.6042 578.781 14.1875C578.365 14.7708 577.927 16.0104 577.469 17.9062C577.031 19.8021 576.812 21.5521 576.812 23.1562L576.688 24.75ZM558.719 25L558.781 24.3125C559.031 21.7083 559.365 19.4062 559.781 17.4062C560.198 15.3854 560.875 13.5 561.812 11.75C564.042 7.89583 567.146 4.97917 571.125 3C575.125 1 579.427 0 584.031 0C588.656 0 592.854 0.927083 596.625 2.78125C598.875 3.88542 600.635 5.28125 601.906 6.96875C604.344 10.0104 605.948 12.8125 606.719 15.375C607.49 17.9375 607.875 20.8958 607.875 24.25C607.875 31.7083 606.333 37.3958 603.25 41.3125L601.812 43.2188C599.875 45.4688 597.135 47.2083 593.594 48.4375C590.052 49.6458 586.542 50.2708 583.062 50.3125C577.104 50.3125 572.219 49.0625 568.406 46.5625C561.948 42.375 558.719 35.1875 558.719 25ZM628.781 21.625C628.531 27.5208 628.406 33.5833 628.406 39.8125V49.125H626.125L625.344 49.0938L614.25 49.1875C613.542 49.1875 613.167 49.1979 613.125 49.2188C613.125 49.1979 613.167 49.0208 613.25 48.6875V48.5L613.281 48.375C613.177 46.875 613.125 45.0521 613.125 42.9062L613.25 8L613.219 6.375V4.8125L613.156 1.875C613.156 1.66667 613.271 1.44792 613.5 1.21875H617.781L620.281 1.1875C626.156 1.1875 630.354 1.27083 632.875 1.4375C635.417 1.60417 637.24 1.6875 638.344 1.6875C638.948 5.27083 639.844 10.0208 641.031 15.9375L643.25 27.125H644.344L648.344 6.6875C648.406 6.375 648.552 5.46875 648.781 3.96875C649.01 2.44792 649.188 1.60417 649.312 1.4375H649.438L669.781 1.25L671 1.28125H674.5C674.688 1.36458 674.792 1.75 674.812 2.4375L675.125 14.25C675.375 24.0417 675.552 31.6667 675.656 37.125C675.656 41.3333 675.594 45.2812 675.469 48.9688C675.406 49.2188 674.99 49.3646 674.219 49.4062L672.812 49.4688C671.688 49.5104 670.854 49.5312 670.312 49.5312H668.688C666.667 49.5521 663.688 49.5625 659.75 49.5625C659.021 48.9167 658.656 46.125 658.656 41.1875L658.719 31.375V28.8438C658.719 26.6146 658.708 24.9688 658.688 23.9062L657.5 23.6875C656.812 26.2083 655.49 31.8229 653.531 40.5312L653.25 41.7812C653.104 42.4271 652.854 43.5833 652.5 45.25C652.167 46.8958 651.896 48.1458 651.688 49C651.438 49.2917 650.333 49.4375 648.375 49.4375H647.969L644.469 49.3438L642.562 49.375H641.094L638.625 49.4062H637.75C636.792 49.4062 636.26 49.1875 636.156 48.75L636.188 48.7812L633.344 36.375C633.26 36.0625 633.073 35.3854 632.781 34.3438C632.49 33.2812 632.323 32.3958 632.281 31.6875L629.938 21.5625L628.781 21.625Z" fill="white"/>
</svg>